<svg width="1200" height="631" viewBox="0 0 1200 631" fill="none" xmlns="http://www.w3.org/2000/svg">
<path d="M1200 0H0V630H1200V0Z" fill="url(#paint0_linear_2105_8)"/>
<path d="M976.045 464.705C955.547 414.5 926.205 369.41 888.825 330.681C851.408 291.915 807.826 261.477 759.289 240.211C708.99 218.176 655.572 207 600.505 207C545.437 207 492.01 218.176 441.711 240.22C393.174 261.496 349.592 291.933 312.175 330.69C274.795 369.419 245.453 414.509 224.955 464.714C203.755 516.662 193 571.832 193 628.688C193 629.279 193.009 629.859 193.009 630.45H221.114C221.114 629.859 221.105 629.279 221.105 628.688C221.105 575.485 231.157 523.894 250.981 475.328C270.12 428.449 297.513 386.348 332.401 350.205C367.261 314.09 407.826 285.75 452.991 265.955C499.711 245.485 549.344 235.105 600.505 235.105C651.665 235.105 701.299 245.485 748.009 265.955C793.174 285.75 833.749 314.09 868.599 350.205C903.487 386.348 930.88 428.449 950.019 475.328C969.843 523.885 979.895 575.485 979.895 628.688C979.895 629.279 979.886 629.859 979.886 630.45H1007.99C1007.99 629.859 1008 629.279 1008 628.688C1008 571.832 997.245 516.662 976.045 464.705Z" fill="url(#paint1_linear_2105_8)"/>
<path d="M859.694 360.212C826.052 325.361 786.864 297.987 743.217 278.866C697.986 259.043 649.946 249 600.424 249C550.903 249 502.853 259.043 457.623 278.866C413.975 297.996 374.788 325.361 341.146 360.212C307.542 395.034 281.16 435.571 262.733 480.698C243.668 527.399 234 576.995 234 628.109C234 628.699 234.009 629.28 234.009 629.87H262.124C262.124 629.28 262.105 628.699 262.105 628.109C262.105 580.658 271.071 534.632 288.758 491.322C305.827 449.511 330.26 411.963 361.372 379.726C425.255 313.548 510.151 277.096 600.424 277.096C690.698 277.096 775.594 313.548 839.477 379.726C870.589 411.963 895.022 449.511 912.091 491.322C929.778 534.632 938.744 580.658 938.744 628.109C938.744 628.699 938.725 629.28 938.725 629.87H966.839C966.839 629.28 966.849 628.699 966.849 628.109C966.849 576.995 957.181 527.399 938.116 480.698C919.679 435.571 893.298 395.034 859.694 360.212Z" fill="url(#paint2_linear_2105_8)"/>
<path d="M830.562 390.752C800.696 359.808 765.902 335.507 727.145 318.522C686.983 300.919 644.319 292 600.335 292C556.35 292 513.696 300.928 473.525 318.522C434.768 335.507 399.974 359.808 370.108 390.752C340.279 421.658 316.858 457.651 300.501 497.71C283.581 539.165 275 583.187 275 628.558C275 629.148 275.019 629.729 275.019 630.319H303.124C303.124 629.729 303.105 629.148 303.105 628.558C303.105 546.07 334.086 468.547 390.334 410.266C446.46 352.117 521.032 320.096 600.335 320.096C679.638 320.096 754.21 352.117 810.336 410.266C866.583 468.547 897.565 546.07 897.565 628.558C897.565 629.148 897.546 629.729 897.546 630.319H925.651C925.651 629.729 925.67 629.148 925.67 628.558C925.67 583.187 917.088 539.165 900.169 497.71C883.821 457.651 860.4 421.658 830.562 390.752Z" fill="url(#paint3_linear_2105_8)"/>
<path d="M600.255 334C524.231 334 452.788 364.644 399.079 420.292C345.501 475.8 316 549.566 316 628.007C316 628.597 316.019 629.178 316.019 629.768H344.124C344.124 629.178 344.106 628.597 344.106 628.007C344.106 556.892 370.815 490.058 419.305 439.816C467.665 389.704 531.932 362.115 600.255 362.115C668.579 362.115 732.845 389.714 781.205 439.816C829.695 490.058 856.405 556.892 856.405 628.007C856.405 628.597 856.386 629.178 856.386 629.768H884.491C884.491 629.178 884.51 628.597 884.51 628.007C884.51 549.575 854.999 475.809 801.431 420.292C747.713 364.644 676.27 334 600.255 334Z" fill="url(#paint4_linear_2105_8)"/>
<path d="M600.174 377C535.129 377 474.001 403.213 428.049 450.823C382.228 498.292 357 561.369 357 628.437C357 629.027 357.018 629.608 357.018 630.199H385.123C385.123 629.608 385.105 629.027 385.105 628.437C385.105 568.686 407.542 512.541 448.266 470.346C488.868 428.282 542.811 405.114 600.165 405.114C657.518 405.114 711.461 428.282 752.063 470.346C792.797 512.551 815.224 568.695 815.224 628.437C815.224 629.027 815.206 629.608 815.206 630.199H843.311C843.311 629.608 843.33 629.027 843.33 628.437C843.33 561.369 818.101 498.292 772.28 450.823C726.347 403.222 665.218 377 600.174 377Z" fill="url(#paint5_linear_2105_8)"/>
<path d="M600.095 419C546.02 419 495.207 440.791 457.021 480.353C418.967 519.785 398 572.173 398 627.868C398 628.458 398.019 629.039 398.019 629.629H426.124C426.115 629.039 426.106 628.458 426.106 627.868C426.106 528.188 504.153 447.105 600.095 447.105C696.036 447.105 774.084 528.198 774.084 627.868C774.084 628.458 774.065 629.039 774.065 629.629H802.17C802.17 629.039 802.189 628.458 802.189 627.868C802.189 572.173 781.232 519.785 743.168 480.353C704.973 440.791 654.169 419 600.095 419Z" fill="url(#paint6_linear_2105_8)"/>
<path d="M600.005 462C511.221 462 439 536.61 439 628.307C439 628.897 439.019 629.478 439.019 630.068H467.124C467.114 629.478 467.105 628.897 467.105 628.307C467.105 552.105 526.725 490.105 600.005 490.105C673.284 490.105 732.904 552.105 732.904 628.307C732.904 628.897 732.885 629.478 732.885 630.068H760.99C761 629.478 761.009 628.897 761.009 628.307C761.009 536.61 688.779 462 600.005 462Z" fill="url(#paint7_linear_2105_8)"/>
<path d="M600.924 504C534.793 504 481 559.508 481 627.747C481 628.337 481.009 628.918 481.019 629.508H509.124C509.114 628.918 509.105 628.337 509.105 627.747C509.105 575.012 550.298 532.105 600.924 532.105C651.551 532.105 692.744 575.012 692.744 627.747C692.744 628.337 692.734 628.918 692.725 629.508H720.83C720.839 628.918 720.849 628.337 720.849 627.747C720.849 559.517 667.046 504 600.924 504Z" fill="url(#paint8_linear_2105_8)"/>
<path d="M600.844 547C557.366 547 522 583.415 522 628.177C522 628.767 522.009 629.348 522.019 629.938H550.143C550.124 629.357 550.096 628.767 550.096 628.177C550.096 598.91 572.861 575.105 600.835 575.105C628.809 575.105 651.574 598.92 651.574 628.177C651.574 628.767 651.546 629.348 651.527 629.938H679.651C679.66 629.357 679.669 628.767 679.669 628.177C679.688 583.415 644.313 547 600.844 547Z" fill="url(#paint9_linear_2105_8)"/>
<path d="M600.213 590C579.144 590 562 607.144 562 628.214C562 628.804 562.018 629.394 562.046 629.975H590.273C590.17 629.403 590.114 628.813 590.114 628.214C590.114 622.639 594.648 618.105 600.222 618.105C605.797 618.105 610.331 622.639 610.331 628.214C610.331 628.813 610.265 629.403 610.172 629.975H638.398C638.427 629.394 638.445 628.804 638.445 628.214C638.417 607.144 621.282 590 600.213 590Z" fill="url(#paint10_linear_2105_8)"/>
<defs>
<linearGradient id="paint0_linear_2105_8" x1="600" y1="630" x2="600" y2="0" gradientUnits="userSpaceOnUse">
<stop stop-color="#FF5ECD"/>
<stop offset="0.330831" stop-color="#FF99A1"/>
<stop offset="1" stop-color="#FFCE85"/>
</linearGradient>
<linearGradient id="paint1_linear_2105_8" x1="193" y1="418.725" x2="1008" y2="418.725" gradientUnits="userSpaceOnUse">
<stop offset="0.005618" stop-color="#FFC876"/>
<stop offset="0.3166" stop-color="#F7D1A8"/>
<stop offset="0.6195" stop-color="#F1D9D1"/>
<stop offset="0.8571" stop-color="#ECDEEB"/>
<stop offset="1" stop-color="#EBE0F4"/>
</linearGradient>
<linearGradient id="paint2_linear_2105_8" x1="234.002" y1="439.437" x2="966.84" y2="439.437" gradientUnits="userSpaceOnUse">
<stop offset="0.005618" stop-color="#FFC876"/>
<stop offset="0.3166" stop-color="#F7D1A8"/>
<stop offset="0.6195" stop-color="#F1D9D1"/>
<stop offset="0.8571" stop-color="#ECDEEB"/>
<stop offset="1" stop-color="#EBE0F4"/>
</linearGradient>
<linearGradient id="paint3_linear_2105_8" x1="275.004" y1="461.158" x2="925.678" y2="461.158" gradientUnits="userSpaceOnUse">
<stop offset="0.005618" stop-color="#FFC876"/>
<stop offset="0.3166" stop-color="#F7D1A8"/>
<stop offset="0.6195" stop-color="#F1D9D1"/>
<stop offset="0.8571" stop-color="#ECDEEB"/>
<stop offset="1" stop-color="#EBE0F4"/>
</linearGradient>
<linearGradient id="paint4_linear_2105_8" x1="315.997" y1="481.88" x2="884.507" y2="481.88" gradientUnits="userSpaceOnUse">
<stop offset="0.005618" stop-color="#FFC876"/>
<stop offset="0.3166" stop-color="#F7D1A8"/>
<stop offset="0.6195" stop-color="#F1D9D1"/>
<stop offset="0.8571" stop-color="#ECDEEB"/>
<stop offset="1" stop-color="#EBE0F4"/>
</linearGradient>
<linearGradient id="paint5_linear_2105_8" x1="356.998" y1="503.601" x2="843.343" y2="503.601" gradientUnits="userSpaceOnUse">
<stop offset="0.005618" stop-color="#FFC876"/>
<stop offset="0.3166" stop-color="#F7D1A8"/>
<stop offset="0.6195" stop-color="#F1D9D1"/>
<stop offset="0.8571" stop-color="#ECDEEB"/>
<stop offset="1" stop-color="#EBE0F4"/>
</linearGradient>
<linearGradient id="paint6_linear_2105_8" x1="398" y1="524.313" x2="802.183" y2="524.313" gradientUnits="userSpaceOnUse">
<stop offset="0.005618" stop-color="#FFC876"/>
<stop offset="0.3166" stop-color="#F7D1A8"/>
<stop offset="0.6195" stop-color="#F1D9D1"/>
<stop offset="0.8571" stop-color="#ECDEEB"/>
<stop offset="1" stop-color="#EBE0F4"/>
</linearGradient>
<linearGradient id="paint7_linear_2105_8" x1="438.993" y1="546.034" x2="761.01" y2="546.034" gradientUnits="userSpaceOnUse">
<stop offset="0.005618" stop-color="#FFC876"/>
<stop offset="0.3166" stop-color="#F7D1A8"/>
<stop offset="0.6195" stop-color="#F1D9D1"/>
<stop offset="0.8571" stop-color="#ECDEEB"/>
<stop offset="1" stop-color="#EBE0F4"/>
</linearGradient>
<linearGradient id="paint8_linear_2105_8" x1="480.994" y1="566.755" x2="720.848" y2="566.755" gradientUnits="userSpaceOnUse">
<stop offset="0.005618" stop-color="#FFC876"/>
<stop offset="0.3166" stop-color="#F7D1A8"/>
<stop offset="0.6195" stop-color="#F1D9D1"/>
<stop offset="0.8571" stop-color="#ECDEEB"/>
<stop offset="1" stop-color="#EBE0F4"/>
</linearGradient>
<linearGradient id="paint9_linear_2105_8" x1="521.996" y1="588.468" x2="679.686" y2="588.468" gradientUnits="userSpaceOnUse">
<stop offset="0.005618" stop-color="#FFC876"/>
<stop offset="0.3166" stop-color="#F7D1A8"/>
<stop offset="0.6195" stop-color="#F1D9D1"/>
<stop offset="0.8571" stop-color="#ECDEEB"/>
<stop offset="1" stop-color="#EBE0F4"/>
</linearGradient>
<linearGradient id="paint10_linear_2105_8" x1="561.998" y1="609.989" x2="638.421" y2="609.989" gradientUnits="userSpaceOnUse">
<stop offset="0.005518" stop-color="#FFC876"/>
<stop offset="0.005618" stop-color="#FFC876"/>
<stop offset="0.3166" stop-color="#F7D1A8"/>
<stop offset="0.6195" stop-color="#F1D9D1"/>
<stop offset="0.8571" stop-color="#ECDEEB"/>
<stop offset="1" stop-color="#EBE0F4"/>
</linearGradient>
</defs>
</svg>
