<?xml version="1.0" encoding="utf-8"?>
<!-- Generator: Adobe Illustrator 24.2.0, SVG Export Plug-In . SVG Version: 6.00 Build 0)  -->
<svg version="1.1" id="Layer_1" xmlns="http://www.w3.org/2000/svg" xmlns:xlink="http://www.w3.org/1999/xlink" x="0px" y="0px"
	 viewBox="0 0 1200 620" style="enable-background:new 0 0 1200 620;" xml:space="preserve">
<style type="text/css">
	.st0{fill:url(#SVGID_1_);}
	.st1{fill:url(#SVGID_2_);}
	.st2{fill:url(#SVGID_3_);}
	.st3{fill:url(#SVGID_4_);}
	.st4{fill:url(#SVGID_5_);}
	.st5{fill:url(#SVGID_6_);}
	.st6{fill:url(#SVGID_7_);}
	.st7{fill:url(#SVGID_8_);}
	.st8{fill:url(#SVGID_9_);}
	.st9{fill:url(#SVGID_10_);}
	.st10{fill:url(#SVGID_11_);}
</style>
<linearGradient id="SVGID_1_" gradientUnits="userSpaceOnUse" x1="600" y1="182" x2="600" y2="802" gradientTransform="matrix(1 0 0 -1 0 802)">
	<stop  offset="4.761900e-03" style="stop-color:#FF61C0"/>
	<stop  offset="0.3308" style="stop-color:#FF99A1"/>
	<stop  offset="1" style="stop-color:#FFCE85"/>
</linearGradient>
<path class="st0" d="M1200,0H0v620h1200V0z"/>
<g>
	<linearGradient id="SVGID_2_" gradientUnits="userSpaceOnUse" x1="349.7491" y1="490" x2="850.251" y2="490">
		<stop  offset="5.518000e-03" style="stop-color:#FFC876"/>
		<stop  offset="5.618000e-03" style="stop-color:#FFC876"/>
		<stop  offset="0.3166" style="stop-color:#F7D1A8"/>
		<stop  offset="0.6195" style="stop-color:#F1D9D1"/>
		<stop  offset="0.8571" style="stop-color:#ECDEEB"/>
		<stop  offset="1" style="stop-color:#EBE0F4"/>
	</linearGradient>
	<path class="st1" d="M830.6,518.2c-12.6-30.8-30.6-58.5-53.6-82.3c-23-23.8-49.7-42.5-79.6-55.5C666.6,366.9,633.8,360,600,360
		c-33.8,0-66.6,6.9-97.5,20.4c-29.8,13.1-56.6,31.8-79.6,55.5c-23,23.8-41,51.5-53.6,82.3c-13,31.9-19.6,65.8-19.6,100.7
		c0,0.4,0,0.7,0,1.1H367c0-0.4,0-0.7,0-1.1c0-32.7,6.2-64.3,18.3-94.2c11.8-28.8,28.6-54.6,50-76.8c21.4-22.2,46.3-39.6,74.1-51.7
		c28.7-12.6,59.2-18.9,90.6-18.9c31.4,0,61.9,6.4,90.6,18.9c27.7,12.2,52.7,29.6,74.1,51.7c21.4,22.2,38.2,48,50,76.8
		c12.2,29.8,18.3,61.5,18.3,94.2c0,0.4,0,0.7,0,1.1h17.3c0-0.4,0-0.7,0-1.1C850.3,584,843.6,550.1,830.6,518.2z"/>
	<linearGradient id="SVGID_3_" gradientUnits="userSpaceOnUse" x1="374.9287" y1="503.0714" x2="824.9802" y2="503.0714">
		<stop  offset="5.518000e-03" style="stop-color:#FFC876"/>
		<stop  offset="5.618000e-03" style="stop-color:#FFC876"/>
		<stop  offset="0.3166" style="stop-color:#F7D1A8"/>
		<stop  offset="0.6195" style="stop-color:#F1D9D1"/>
		<stop  offset="0.8571" style="stop-color:#ECDEEB"/>
		<stop  offset="1" style="stop-color:#EBE0F4"/>
	</linearGradient>
	<path class="st2" d="M759.2,454.4c-20.7-21.4-44.7-38.2-71.5-49.9c-27.8-12.2-57.3-18.3-87.7-18.3c-30.4,0-59.9,6.2-87.7,18.3
		c-26.8,11.7-50.9,28.5-71.5,49.9c-20.6,21.4-36.8,46.3-48.2,74c-11.7,28.7-17.6,59.1-17.6,90.5c0,0.4,0,0.7,0,1.1h17.3
		c0-0.4,0-0.7,0-1.1c0-29.1,5.5-57.4,16.4-84c10.5-25.7,25.5-48.7,44.6-68.5c39.2-40.6,91.4-63,146.8-63c55.4,0,107.6,22.4,146.8,63
		c19.1,19.8,34.1,42.8,44.6,68.5c10.9,26.6,16.4,54.9,16.4,84c0,0.4,0,0.7,0,1.1H825c0-0.4,0-0.7,0-1.1c0-31.4-5.9-61.8-17.6-90.5
		C796,500.7,779.8,475.8,759.2,454.4z"/>
	<linearGradient id="SVGID_4_" gradientUnits="userSpaceOnUse" x1="400.1063" y1="516.1351" x2="799.691" y2="516.1351">
		<stop  offset="5.518000e-03" style="stop-color:#FFC876"/>
		<stop  offset="5.618000e-03" style="stop-color:#FFC876"/>
		<stop  offset="0.3166" style="stop-color:#F7D1A8"/>
		<stop  offset="0.6195" style="stop-color:#F1D9D1"/>
		<stop  offset="0.8571" style="stop-color:#ECDEEB"/>
		<stop  offset="1" style="stop-color:#EBE0F4"/>
	</linearGradient>
	<path class="st3" d="M741.3,472.9c-18.3-19-39.7-33.9-63.5-44.3c-24.7-10.8-50.9-16.3-77.9-16.3c-27,0-53.2,5.5-77.9,16.3
		c-23.8,10.4-45.2,25.3-63.5,44.3c-18.3,19-32.7,41.1-42.7,65.7c-10.4,25.5-15.7,52.5-15.7,80.3c0,0.4,0,0.7,0,1.1h17.3
		c0-0.4,0-0.7,0-1.1c0-50.6,19-98.2,53.6-134c34.5-35.7,80.3-55.4,129-55.4c48.7,0,94.5,19.7,129,55.4c34.5,35.8,53.6,83.4,53.6,134
		c0,0.4,0,0.7,0,1.1h17.3c0-0.4,0-0.7,0-1.1c0-27.9-5.3-54.9-15.7-80.3C774,514,759.6,491.9,741.3,472.9z"/>
	<linearGradient id="SVGID_5_" gradientUnits="userSpaceOnUse" x1="425.2859" y1="529.1983" x2="774.4142" y2="529.1983">
		<stop  offset="5.518000e-03" style="stop-color:#FFC876"/>
		<stop  offset="5.618000e-03" style="stop-color:#FFC876"/>
		<stop  offset="0.3166" style="stop-color:#F7D1A8"/>
		<stop  offset="0.6195" style="stop-color:#F1D9D1"/>
		<stop  offset="0.8571" style="stop-color:#ECDEEB"/>
		<stop  offset="1" style="stop-color:#EBE0F4"/>
	</linearGradient>
	<path class="st4" d="M599.9,438.4c-46.7,0-90.6,18.8-123.5,53c-32.9,34.1-51,79.4-51,127.5c0,0.4,0,0.7,0,1.1h17.3
		c0-0.4,0-0.7,0-1.1c0-43.7,16.4-84.7,46.2-115.6c29.7-30.8,69.2-47.7,111.1-47.7c42,0,81.4,16.9,111.1,47.7
		c29.8,30.8,46.2,71.9,46.2,115.6c0,0.4,0,0.7,0,1.1h17.3c0-0.4,0-0.7,0-1.1c0-48.2-18.1-93.5-51-127.5
		C690.4,457.2,646.5,438.4,599.9,438.4z"/>
	<linearGradient id="SVGID_6_" gradientUnits="userSpaceOnUse" x1="450.4625" y1="542.2676" x2="749.124" y2="542.2676">
		<stop  offset="5.518000e-03" style="stop-color:#FFC876"/>
		<stop  offset="5.618000e-03" style="stop-color:#FFC876"/>
		<stop  offset="0.3166" style="stop-color:#F7D1A8"/>
		<stop  offset="0.6195" style="stop-color:#F1D9D1"/>
		<stop  offset="0.8571" style="stop-color:#ECDEEB"/>
		<stop  offset="1" style="stop-color:#EBE0F4"/>
	</linearGradient>
	<path class="st5" d="M599.8,464.5c-39.9,0-77.5,16.1-105.7,45.3c-28.1,29.1-43.6,67.9-43.6,109.1c0,0.4,0,0.7,0,1.1h17.3
		c0-0.4,0-0.7,0-1.1c0-36.7,13.8-71.2,38.8-97.1c24.9-25.8,58.1-40.1,93.3-40.1c35.2,0,68.3,14.2,93.3,40.1
		c25,25.9,38.8,60.4,38.8,97.1c0,0.4,0,0.7,0,1.1h17.3c0-0.4,0-0.7,0-1.1c0-41.2-15.5-79.9-43.6-109.1
		C677.3,480.6,639.7,464.5,599.8,464.5z"/>
	<linearGradient id="SVGID_7_" gradientUnits="userSpaceOnUse" x1="475.6422" y1="555.336" x2="723.8594" y2="555.336">
		<stop  offset="5.518000e-03" style="stop-color:#FFC876"/>
		<stop  offset="5.618000e-03" style="stop-color:#FFC876"/>
		<stop  offset="0.3166" style="stop-color:#F7D1A8"/>
		<stop  offset="0.6195" style="stop-color:#F1D9D1"/>
		<stop  offset="0.8571" style="stop-color:#ECDEEB"/>
		<stop  offset="1" style="stop-color:#EBE0F4"/>
	</linearGradient>
	<path class="st6" d="M599.8,490.7c-33.2,0-64.4,13.4-87.9,37.7c-23.4,24.2-36.2,56.4-36.2,90.6c0,0.4,0,0.7,0,1.1h17.3
		c0-0.4,0-0.7,0-1.1c0-61.2,47.9-111,106.8-111c58.9,0,106.8,49.8,106.8,111c0,0.4,0,0.7,0,1.1h17.3c0-0.4,0-0.7,0-1.1
		c0-34.2-12.9-66.4-36.2-90.6C664.2,504.1,633,490.7,599.8,490.7z"/>
	<linearGradient id="SVGID_8_" gradientUnits="userSpaceOnUse" x1="500.8208" y1="568.4028" x2="698.5702" y2="568.4028">
		<stop  offset="5.518000e-03" style="stop-color:#FFC876"/>
		<stop  offset="5.618000e-03" style="stop-color:#FFC876"/>
		<stop  offset="0.3166" style="stop-color:#F7D1A8"/>
		<stop  offset="0.6195" style="stop-color:#F1D9D1"/>
		<stop  offset="0.8571" style="stop-color:#ECDEEB"/>
		<stop  offset="1" style="stop-color:#EBE0F4"/>
	</linearGradient>
	<path class="st7" d="M599.7,516.8c-54.5,0-98.9,45.8-98.9,102.1c0,0.4,0,0.7,0,1.1h17.3c0-0.4,0-0.7,0-1.1
		c0-46.8,36.6-84.9,81.6-84.9c45,0,81.6,38.1,81.6,84.9c0,0.4,0,0.7,0,1.1h17.3c0-0.4,0-0.7,0-1.1
		C698.6,562.6,654.2,516.8,599.7,516.8z"/>
	<linearGradient id="SVGID_9_" gradientUnits="userSpaceOnUse" x1="526.6135" y1="581.4685" x2="673.9075" y2="581.4685">
		<stop  offset="5.518000e-03" style="stop-color:#FFC876"/>
		<stop  offset="5.618000e-03" style="stop-color:#FFC876"/>
		<stop  offset="0.3166" style="stop-color:#F7D1A8"/>
		<stop  offset="0.6195" style="stop-color:#F1D9D1"/>
		<stop  offset="0.8571" style="stop-color:#ECDEEB"/>
		<stop  offset="1" style="stop-color:#EBE0F4"/>
	</linearGradient>
	<path class="st8" d="M600.3,542.9c-40.6,0-73.6,34.1-73.6,76c0,0.4,0,0.7,0,1.1h17.3c0-0.4,0-0.7,0-1.1c0-32.4,25.3-58.7,56.4-58.7
		c31.1,0,56.4,26.3,56.4,58.7c0,0.4,0,0.7,0,1.1h17.3c0-0.4,0-0.7,0-1.1C673.9,577,640.9,542.9,600.3,542.9z"/>
	<linearGradient id="SVGID_10_" gradientUnits="userSpaceOnUse" x1="551.7922" y1="594.5378" x2="648.6193" y2="594.5378">
		<stop  offset="5.518000e-03" style="stop-color:#FFC876"/>
		<stop  offset="5.618000e-03" style="stop-color:#FFC876"/>
		<stop  offset="0.3166" style="stop-color:#F7D1A8"/>
		<stop  offset="0.6195" style="stop-color:#F1D9D1"/>
		<stop  offset="0.8571" style="stop-color:#ECDEEB"/>
		<stop  offset="1" style="stop-color:#EBE0F4"/>
	</linearGradient>
	<path class="st9" d="M600.2,569.1c-26.7,0-48.4,22.4-48.4,49.8c0,0.4,0,0.7,0,1.1h17.3c0-0.4,0-0.7,0-1.1c0-18,14-32.6,31.2-32.6
		c17.2,0,31.2,14.6,31.2,32.6c0,0.4,0,0.7,0,1.1h17.3c0-0.4,0-0.7,0-1.1C648.6,591.4,626.9,569.1,600.2,569.1z"/>
	<linearGradient id="SVGID_11_" gradientUnits="userSpaceOnUse" x1="576.3567" y1="607.7275" x2="623.3035" y2="607.7275">
		<stop  offset="5.518000e-03" style="stop-color:#FFC876"/>
		<stop  offset="5.618000e-03" style="stop-color:#FFC876"/>
		<stop  offset="0.3166" style="stop-color:#F7D1A8"/>
		<stop  offset="0.6195" style="stop-color:#F1D9D1"/>
		<stop  offset="0.8571" style="stop-color:#ECDEEB"/>
		<stop  offset="1" style="stop-color:#EBE0F4"/>
	</linearGradient>
	<path class="st10" d="M599.8,595.5c-12.9,0-23.5,10.5-23.5,23.5c0,0.4,0,0.7,0,1.1h17.3c-0.1-0.4-0.1-0.7-0.1-1.1
		c0-3.4,2.8-6.2,6.2-6.2c3.4,0,6.2,2.8,6.2,6.2c0,0.4,0,0.7-0.1,1.1h17.3c0-0.4,0-0.7,0-1.1C623.3,606,612.8,595.5,599.8,595.5z"/>
</g>
</svg>
