<?xml version="1.0" encoding="utf-8"?>
<!-- Generator: Adobe Illustrator 24.2.0, SVG Export Plug-In . SVG Version: 6.00 Build 0)  -->
<svg version="1.1" id="Layer_1" xmlns="http://www.w3.org/2000/svg" xmlns:xlink="http://www.w3.org/1999/xlink" x="0px" y="0px"
	 viewBox="0 0 1700 500" style="enable-background:new 0 0 1700 500;" xml:space="preserve">
<style type="text/css">
	.st0{fill:url(#SVGID_1_);}
	.st1{fill:url(#SVGID_2_);}
	.st2{fill:url(#SVGID_3_);}
	.st3{fill:url(#SVGID_4_);}
	.st4{fill:url(#SVGID_5_);}
	.st5{fill:url(#SVGID_6_);}
	.st6{fill:url(#SVGID_7_);}
	.st7{fill:url(#SVGID_8_);}
	.st8{fill:url(#SVGID_9_);}
	.st9{fill:url(#SVGID_10_);}
	.st10{fill:url(#SVGID_11_);}
</style>
<linearGradient id="SVGID_1_" gradientUnits="userSpaceOnUse" x1="850" y1="-56" x2="850" y2="444" gradientTransform="matrix(1 0 0 -1 0 444)">
	<stop  offset="4.761900e-03" style="stop-color:#FF61C0"/>
	<stop  offset="0.3308" style="stop-color:#FF99A1"/>
	<stop  offset="1" style="stop-color:#FFCE85"/>
</linearGradient>
<path class="st0" d="M1700,0H0v500h1700V0z"/>
<g>
	
		<linearGradient id="SVGID_2_" gradientUnits="userSpaceOnUse" x1="696.0285" y1="777.9692" x2="1003.9715" y2="777.9692" gradientTransform="matrix(1 0 0 1 0 -358)">
		<stop  offset="5.518000e-03" style="stop-color:#FFC876"/>
		<stop  offset="5.618000e-03" style="stop-color:#FFC876"/>
		<stop  offset="0.3166" style="stop-color:#F7D1A8"/>
		<stop  offset="0.6195" style="stop-color:#F1D9D1"/>
		<stop  offset="0.8571" style="stop-color:#ECDEEB"/>
		<stop  offset="1" style="stop-color:#EBE0F4"/>
	</linearGradient>
	<path class="st1" d="M991.9,437.3c-7.8-18.9-18.8-36-33-50.6c-14.1-14.6-30.6-26.1-49-34.1C891,344.2,870.8,340,850,340
		s-41,4.2-60,12.5c-18.3,8.1-34.8,19.6-49,34.1c-14.1,14.6-25.2,31.7-33,50.6c-8,19.6-12.1,40.5-12.1,61.9c0,0.2,0,0.4,0,0.7h10.6
		c0-0.2,0-0.4,0-0.7c0-20.1,3.8-39.6,11.3-57.9c7.3-17.7,17.6-33.6,30.8-47.2s28.5-24.4,45.6-31.8c17.7-7.8,36.4-11.6,55.7-11.6
		c19.3,0,38.1,3.9,55.7,11.6c17,7.5,32.4,18.2,45.6,31.8c13.2,13.7,23.5,29.5,30.8,47.2c7.5,18.3,11.3,37.8,11.3,57.9
		c0,0.2,0,0.4,0,0.7h10.6c0-0.2,0-0.4,0-0.7C1004,477.8,999.9,456.9,991.9,437.3z"/>
	
		<linearGradient id="SVGID_3_" gradientUnits="userSpaceOnUse" x1="711.5917" y1="786.0276" x2="988.4083" y2="786.0276" gradientTransform="matrix(1 0 0 1 0 -358)">
		<stop  offset="5.518000e-03" style="stop-color:#FFC876"/>
		<stop  offset="5.618000e-03" style="stop-color:#FFC876"/>
		<stop  offset="0.3166" style="stop-color:#F7D1A8"/>
		<stop  offset="0.6195" style="stop-color:#F1D9D1"/>
		<stop  offset="0.8571" style="stop-color:#ECDEEB"/>
		<stop  offset="1" style="stop-color:#EBE0F4"/>
	</linearGradient>
	<path class="st2" d="M947.9,398.1c-12.7-13.2-27.5-23.5-44-30.7c-17.1-7.5-35.2-11.3-53.9-11.3s-36.8,3.8-53.9,11.3
		c-16.5,7.2-31.3,17.5-44,30.7c-12.7,13.2-22.6,28.5-29.7,45.5c-7.2,17.7-10.8,36.4-10.8,55.7c0,0.2,0,0.4,0,0.7h10.6
		c0-0.2,0-0.4,0-0.7c0-17.9,3.4-35.3,10.1-51.7c6.5-15.8,15.7-30,27.4-42.1c24.1-25,56.2-38.8,90.3-38.8c34.1,0,66.2,13.8,90.3,38.8
		c11.7,12.2,21,26.3,27.4,42.1c6.7,16.4,10.1,33.8,10.1,51.7c0,0.2,0,0.4,0,0.7h10.5c0-0.2,0-0.4,0-0.7c0-19.3-3.6-38-10.8-55.7
		C970.6,426.6,960.6,411.2,947.9,398.1z"/>
	
		<linearGradient id="SVGID_4_" gradientUnits="userSpaceOnUse" x1="727.0319" y1="794.0554" x2="972.968" y2="794.0554" gradientTransform="matrix(1 0 0 1 0 -358)">
		<stop  offset="5.518000e-03" style="stop-color:#FFC876"/>
		<stop  offset="5.618000e-03" style="stop-color:#FFC876"/>
		<stop  offset="0.3166" style="stop-color:#F7D1A8"/>
		<stop  offset="0.6195" style="stop-color:#F1D9D1"/>
		<stop  offset="0.8571" style="stop-color:#ECDEEB"/>
		<stop  offset="1" style="stop-color:#EBE0F4"/>
	</linearGradient>
	<path class="st3" d="M936.9,409.5c-11.3-11.7-24.4-20.9-39.1-27.3c-15.2-6.6-31.3-10-47.9-10s-32.7,3.4-47.9,10
		c-14.6,6.4-27.8,15.6-39.1,27.3s-20.1,25.3-26.3,40.4c-6.4,15.7-9.7,32.3-9.7,49.4c0,0.2,0,0.4,0,0.7h10.6c0-0.2,0-0.4,0-0.7
		c0-31.1,11.7-60.4,33-82.4c21.2-22,49.4-34.1,79.4-34.1s58.1,12.1,79.4,34.1c21.2,22,33,51.3,33,82.4c0,0.2,0,0.4,0,0.7H973
		c0-0.2,0-0.4,0-0.7c0-17.2-3.3-33.8-9.7-49.4C957,434.7,948.2,421.1,936.9,409.5z"/>
	
		<linearGradient id="SVGID_5_" gradientUnits="userSpaceOnUse" x1="742.5952" y1="802.083" x2="957.4048" y2="802.083" gradientTransform="matrix(1 0 0 1 0 -358)">
		<stop  offset="5.518000e-03" style="stop-color:#FFC876"/>
		<stop  offset="5.618000e-03" style="stop-color:#FFC876"/>
		<stop  offset="0.3166" style="stop-color:#F7D1A8"/>
		<stop  offset="0.6195" style="stop-color:#F1D9D1"/>
		<stop  offset="0.8571" style="stop-color:#ECDEEB"/>
		<stop  offset="1" style="stop-color:#EBE0F4"/>
	</linearGradient>
	<path class="st4" d="M849.9,388.2c-28.7,0-55.7,11.6-76,32.6c-20.2,21-31.4,48.8-31.4,78.4c0,0.2,0,0.4,0,0.7h10.6
		c0-0.2,0-0.4,0-0.7c0-26.9,10.1-52.1,28.4-71.1c18.3-18.9,42.6-29.3,68.3-29.3c25.8,0,50.1,10.4,68.3,29.3
		c18.3,18.9,28.4,44.2,28.4,71.1c0,0.2,0,0.4,0,0.7h10.6c0-0.2,0-0.4,0-0.7c0-29.7-11.1-57.5-31.4-78.4
		C905.6,399.8,878.6,388.2,849.9,388.2z"/>
	
		<linearGradient id="SVGID_6_" gradientUnits="userSpaceOnUse" x1="758.0353" y1="810.1107" x2="941.8416" y2="810.1107" gradientTransform="matrix(1 0 0 1 0 -358)">
		<stop  offset="5.518000e-03" style="stop-color:#FFC876"/>
		<stop  offset="5.618000e-03" style="stop-color:#FFC876"/>
		<stop  offset="0.3166" style="stop-color:#F7D1A8"/>
		<stop  offset="0.6195" style="stop-color:#F1D9D1"/>
		<stop  offset="0.8571" style="stop-color:#ECDEEB"/>
		<stop  offset="1" style="stop-color:#EBE0F4"/>
	</linearGradient>
	<path class="st5" d="M849.9,404.3c-24.5,0-47.7,9.9-65,27.9C767.6,450,758,473.9,758,499.3c0,0.2,0,0.4,0,0.7h10.6
		c0-0.2,0-0.4,0-0.7c0-22.6,8.5-43.8,23.9-59.7c15.3-15.9,35.7-24.7,57.4-24.7c21.7,0,42,8.7,57.4,24.7
		c15.4,15.9,23.9,37.2,23.9,59.7c0,0.2,0,0.4,0,0.7h10.6c0-0.2,0-0.4,0-0.7c0-25.3-9.5-49.2-26.8-67.1
		C897.6,414.2,874.4,404.3,849.9,404.3z"/>
	
		<linearGradient id="SVGID_7_" gradientUnits="userSpaceOnUse" x1="773.537" y1="818.1999" x2="926.2168" y2="818.1999" gradientTransform="matrix(1 0 0 1 0 -358)">
		<stop  offset="5.518000e-03" style="stop-color:#FFC876"/>
		<stop  offset="5.618000e-03" style="stop-color:#FFC876"/>
		<stop  offset="0.3166" style="stop-color:#F7D1A8"/>
		<stop  offset="0.6195" style="stop-color:#F1D9D1"/>
		<stop  offset="0.8571" style="stop-color:#ECDEEB"/>
		<stop  offset="1" style="stop-color:#EBE0F4"/>
	</linearGradient>
	<path class="st6" d="M849.9,420.4c-20.4,0-39.6,8.2-54.1,23.2c-14.4,14.9-22.3,34.7-22.3,55.7c0,0.2,0,0.4,0,0.7h10.6
		c0-0.2,0-0.4,0-0.7c0-37.6,29.5-68.3,65.7-68.3s65.7,30.6,65.7,68.3c0,0.2,0,0.4,0,0.7h10.6c0-0.2,0-0.4,0-0.7
		c0-21-7.9-40.8-22.3-55.7C889.5,428.6,870.3,420.4,849.9,420.4z"/>
	
		<linearGradient id="SVGID_8_" gradientUnits="userSpaceOnUse" x1="788.9773" y1="826.1968" x2="910.6536" y2="826.1968" gradientTransform="matrix(1 0 0 1 0 -358)">
		<stop  offset="5.518000e-03" style="stop-color:#FFC876"/>
		<stop  offset="5.618000e-03" style="stop-color:#FFC876"/>
		<stop  offset="0.3166" style="stop-color:#F7D1A8"/>
		<stop  offset="0.6195" style="stop-color:#F1D9D1"/>
		<stop  offset="0.8571" style="stop-color:#ECDEEB"/>
		<stop  offset="1" style="stop-color:#EBE0F4"/>
	</linearGradient>
	<path class="st7" d="M849.8,436.5c-33.5,0-60.8,28.2-60.8,62.8c0,0.2,0,0.4,0,0.7h10.6c0-0.2,0-0.4,0-0.7
		c0-28.8,22.5-52.2,50.2-52.2s50.2,23.4,50.2,52.2c0,0.2,0,0.4,0,0.7h10.6c0-0.2,0-0.4,0-0.7C910.7,464.6,883.3,436.5,849.8,436.5z"
		/>
	
		<linearGradient id="SVGID_9_" gradientUnits="userSpaceOnUse" x1="804.9097" y1="834.2245" x2="895.5825" y2="834.2245" gradientTransform="matrix(1 0 0 1 0 -358)">
		<stop  offset="5.518000e-03" style="stop-color:#FFC876"/>
		<stop  offset="5.618000e-03" style="stop-color:#FFC876"/>
		<stop  offset="0.3166" style="stop-color:#F7D1A8"/>
		<stop  offset="0.6195" style="stop-color:#F1D9D1"/>
		<stop  offset="0.8571" style="stop-color:#ECDEEB"/>
		<stop  offset="1" style="stop-color:#EBE0F4"/>
	</linearGradient>
	<path class="st8" d="M850.2,452.5c-25,0-45.3,21-45.3,46.8c0,0.2,0,0.4,0,0.7h10.6c0-0.2,0-0.4,0-0.7c0-19.9,15.6-36.1,34.7-36.1
		c19.1,0,34.7,16.2,34.7,36.1c0,0.2,0,0.4,0,0.7h10.6c0-0.2,0-0.4,0-0.7C895.5,473.5,875.2,452.5,850.2,452.5z"/>
	
		<linearGradient id="SVGID_10_" gradientUnits="userSpaceOnUse" x1="820.3499" y1="842.283" x2="879.9128" y2="842.283" gradientTransform="matrix(1 0 0 1 0 -358)">
		<stop  offset="5.518000e-03" style="stop-color:#FFC876"/>
		<stop  offset="5.618000e-03" style="stop-color:#FFC876"/>
		<stop  offset="0.3166" style="stop-color:#F7D1A8"/>
		<stop  offset="0.6195" style="stop-color:#F1D9D1"/>
		<stop  offset="0.8571" style="stop-color:#ECDEEB"/>
		<stop  offset="1" style="stop-color:#EBE0F4"/>
	</linearGradient>
	<path class="st9" d="M850.1,468.6c-16.4,0-29.8,13.8-29.8,30.6c0,0.2,0,0.4,0,0.7H831c0-0.2,0-0.4,0-0.7c0-11.1,8.6-20.1,19.2-20.1
		c10.6,0,19.2,9,19.2,20.1c0,0.2,0,0.4,0,0.7H880c0-0.2,0-0.4,0-0.7C879.9,482.3,866.5,468.6,850.1,468.6z"/>
	
		<linearGradient id="SVGID_11_" gradientUnits="userSpaceOnUse" x1="835.4559" y1="850.4337" x2="864.3351" y2="850.4337" gradientTransform="matrix(1 0 0 1 0 -358)">
		<stop  offset="5.518000e-03" style="stop-color:#FFC876"/>
		<stop  offset="5.618000e-03" style="stop-color:#FFC876"/>
		<stop  offset="0.3166" style="stop-color:#F7D1A8"/>
		<stop  offset="0.6195" style="stop-color:#F1D9D1"/>
		<stop  offset="0.8571" style="stop-color:#ECDEEB"/>
		<stop  offset="1" style="stop-color:#EBE0F4"/>
	</linearGradient>
	<path class="st10" d="M849.9,484.9c-7.9,0-14.5,6.5-14.5,14.5c0,0.2,0,0.4,0,0.7h10.6c-0.1-0.2-0.1-0.4-0.1-0.7
		c0-2.1,1.7-3.8,3.8-3.8c2.1,0,3.8,1.7,3.8,3.8c0,0.2,0,0.4-0.1,0.7h10.6c0-0.2,0-0.4,0-0.7C864.3,491.3,857.9,484.9,849.9,484.9z"
		/>
</g>
</svg>
