<svg width="457" height="349" viewBox="0 0 457 349" fill="none" xmlns="http://www.w3.org/2000/svg">
<mask id="mask0_591_4" style="mask-type:alpha" maskUnits="userSpaceOnUse" x="0" y="0" width="457" height="349">
<rect width="457" height="349" fill="#C4C4C4"/>
</mask>
<g mask="url(#mask0_591_4)">
<path d="M250 337L-195 108V-136L360 54L250 337Z" fill="#FF7058"/>
<path d="M303.31 349.14C388.086 349.14 456.81 280.416 456.81 195.64C456.81 110.864 388.086 42.14 303.31 42.14C218.534 42.14 149.81 110.864 149.81 195.64C149.81 280.416 218.534 349.14 303.31 349.14Z" fill="white"/>
<path d="M364.018 204.54C364.018 173.22 339.778 147.01 308.778 144.74V147.76C322.898 148.85 336.028 155.21 345.758 165.68C355.598 176.27 361.018 190.07 361.018 204.54C361.018 213.56 358.978 222.18 354.958 230.18L357.598 231.6C361.858 223.16 364.018 214.06 364.018 204.54Z" fill="#FFBE16"/>
<path d="M308.778 171.1V174.14C323.718 176.3 334.958 189.33 334.958 204.55C334.958 221.49 321.258 235.28 304.408 235.28C287.558 235.28 273.858 221.5 273.858 204.55C273.858 189.33 285.098 176.3 300.038 174.14V171.1C283.378 173.29 270.868 187.61 270.868 204.54C270.868 223.15 285.908 238.28 304.408 238.28C322.908 238.28 337.948 223.15 337.948 204.54C337.958 187.61 325.428 173.29 308.778 171.1Z" fill="#FFBE16"/>
<path d="M284.248 116.52L274.918 107.13C274.348 106.56 273.368 106.56 272.808 107.13C272.528 107.42 272.368 107.79 272.368 108.2C272.368 108.61 272.518 108.98 272.808 109.27L281.398 117.92C281.508 118.03 281.508 118.21 281.398 118.32L272.808 126.97C272.528 127.25 272.368 127.63 272.368 128.04C272.368 128.44 272.518 128.82 272.808 129.11C273.378 129.68 274.358 129.68 274.918 129.11L284.248 119.72C284.298 119.67 284.378 119.64 284.448 119.64H296.648C296.768 119.64 296.878 119.72 296.918 119.83C297.768 122.51 299.978 124.55 302.708 125.17C302.838 125.2 302.928 125.31 302.928 125.44V211.17C302.928 211.26 302.888 211.34 302.818 211.4C302.748 211.45 302.658 211.47 302.568 211.45C301.698 211.22 300.888 210.81 300.168 210.26C299.318 209.62 298.618 208.78 298.118 207.83L298.068 207.72C297.978 207.54 297.888 207.34 297.818 207.14C297.788 207.07 297.768 207.01 297.748 206.93C297.688 206.76 297.638 206.58 297.588 206.4L297.578 206.35C297.558 206.28 297.548 206.22 297.528 206.16C297.488 205.98 297.458 205.79 297.428 205.61L297.418 205.54C297.408 205.49 297.398 205.43 297.388 205.38C297.358 205.09 297.338 204.83 297.338 204.57C297.338 202.36 298.328 200.33 300.068 198.96V195.43C296.578 197.12 294.348 200.66 294.348 204.57C294.348 210.16 298.878 214.71 304.428 214.71C309.988 214.71 314.508 210.16 314.508 204.57C314.508 200.66 312.278 197.12 308.788 195.43V198.96C310.518 200.33 311.518 202.36 311.518 204.57C311.518 204.83 311.508 205.09 311.468 205.38C311.458 205.43 311.458 205.48 311.448 205.53L311.438 205.61C311.408 205.8 311.378 205.98 311.338 206.16C311.328 206.23 311.308 206.29 311.288 206.36L311.278 206.41C311.228 206.59 311.178 206.77 311.118 206.95L311.048 207.15C310.958 207.36 310.878 207.56 310.788 207.74L310.738 207.85C310.248 208.8 309.548 209.64 308.688 210.28C307.968 210.83 307.158 211.22 306.278 211.46C306.188 211.48 306.108 211.47 306.028 211.41C305.958 211.36 305.918 211.28 305.918 211.18V125.43C305.918 125.3 306.008 125.18 306.138 125.16C308.868 124.55 311.078 122.51 311.928 119.82C311.968 119.71 312.078 119.63 312.198 119.63H324.398C324.468 119.63 324.548 119.66 324.598 119.71L333.928 129.1C334.498 129.67 335.478 129.67 336.038 129.1C336.318 128.82 336.478 128.44 336.478 128.03C336.478 127.63 336.328 127.25 336.038 126.96L327.448 118.31C327.338 118.2 327.338 118.02 327.448 117.91L336.038 109.26C336.318 108.98 336.478 108.6 336.478 108.19C336.478 107.79 336.328 107.41 336.038 107.12C335.758 106.84 335.378 106.68 334.978 106.68C334.578 106.68 334.208 106.83 333.918 107.12L324.588 116.51C324.538 116.56 324.458 116.59 324.388 116.59H312.498C312.358 116.59 312.238 116.48 312.218 116.34C311.778 113.07 309.338 110.4 306.138 109.68C306.008 109.65 305.918 109.53 305.918 109.41V99.1601C305.918 99.0101 306.048 98.8801 306.198 98.8801H319.678C320.508 98.8801 321.178 98.2001 321.178 97.3801C321.178 96.5601 320.508 95.8701 319.678 95.8701H289.168C288.338 95.8701 287.668 96.5501 287.668 97.3801C287.668 98.2101 288.338 98.8801 289.168 98.8801H302.648C302.798 98.8801 302.928 99.0101 302.928 99.1601V109.44C302.928 109.57 302.838 109.69 302.708 109.71C299.508 110.43 297.068 113.1 296.628 116.37C296.608 116.51 296.488 116.62 296.348 116.62H284.458C284.368 116.61 284.298 116.58 284.248 116.52ZM304.058 112.54C304.088 112.54 304.108 112.54 304.128 112.55C304.328 112.59 304.478 112.59 304.688 112.55C304.718 112.54 304.738 112.54 304.758 112.54C307.298 112.72 309.288 114.87 309.288 117.43C309.288 120.13 307.098 122.33 304.418 122.33C301.738 122.33 299.548 120.13 299.548 117.43C299.538 114.88 301.518 112.72 304.058 112.54Z" fill="#FFBE16"/>
<path d="M344.038 126.53H352.688C353.258 126.53 354.788 126.53 355.458 125.34C356.128 124.14 355.418 122.95 354.668 121.7C354.038 120.65 353.258 119.35 353.258 118.12C353.258 116.89 354.038 115.59 354.668 114.54C355.418 113.28 356.138 112.1 355.458 110.9C354.788 109.7 353.268 109.7 352.688 109.7H344.038C339.288 109.7 335.428 113.47 335.428 118.11C335.428 122.75 339.298 126.53 344.038 126.53ZM344.038 112.7H351.758C351.858 112.7 351.948 112.75 352.008 112.84C352.058 112.93 352.058 113.04 351.998 113.13C351.108 114.61 350.248 116.2 350.248 118.1C350.248 120 351.118 121.61 351.998 123.07C352.048 123.16 352.048 123.26 352.008 123.36C351.958 123.45 351.858 123.51 351.758 123.51H344.038C340.938 123.51 338.418 121.08 338.418 118.11C338.428 115.13 340.948 112.7 344.038 112.7Z" fill="#FFBE16"/>
<path d="M287.038 83.3701C287.138 83.3901 287.228 83.4601 287.258 83.5601L289.228 89.3601C289.258 89.4501 289.238 89.5401 289.188 89.6101C289.138 89.6801 289.048 89.7301 288.958 89.7301H288.008C287.178 89.7301 286.508 90.4101 286.508 91.2301C286.508 92.0601 287.178 92.7401 288.008 92.7401H320.798C321.628 92.7401 322.298 92.0601 322.298 91.2301C322.298 90.4001 321.628 89.7301 320.798 89.7301H319.858C319.768 89.7301 319.678 89.6801 319.628 89.6101C319.578 89.5401 319.558 89.4401 319.588 89.3601L321.558 83.5601C321.588 83.4601 321.678 83.3901 321.778 83.3701C324.748 82.8701 326.888 80.3201 326.888 77.3001C326.888 73.9001 324.138 71.1401 320.768 71.1401C317.388 71.1401 314.638 73.9001 314.638 77.3001C314.638 79.7501 316.088 81.9701 318.328 82.9501C318.458 83.0101 318.528 83.1601 318.478 83.3001L316.348 89.5401C316.308 89.6501 316.198 89.7301 316.078 89.7301H306.308C306.158 89.7301 306.028 89.6001 306.028 89.4501V83.5901C306.028 83.5801 306.028 83.5601 306.018 83.5401C306.008 83.5201 306.008 83.4901 306.008 83.4701C305.998 83.3401 306.078 83.2201 306.208 83.1801C308.778 82.3701 310.498 80.0001 310.498 77.3001C310.498 73.9001 307.748 71.1401 304.378 71.1401C301.008 71.1401 298.258 73.9001 298.258 77.3001C298.258 80.1001 300.138 82.5401 302.838 83.2501C302.968 83.2801 303.048 83.4001 303.048 83.5301C303.048 83.5401 303.038 83.5801 303.038 83.5901V89.4401C303.038 89.5901 302.908 89.7201 302.758 89.7201H292.698C292.578 89.7201 292.468 89.6501 292.428 89.5301L290.298 83.2901C290.248 83.1501 290.318 83.0001 290.448 82.9301C292.688 81.9401 294.128 79.7301 294.128 77.2801C294.128 73.8801 291.378 71.1201 288.008 71.1201C284.638 71.1201 281.888 73.8801 281.888 77.2801C281.918 80.3201 284.078 82.8701 287.038 83.3701ZM317.648 77.3001C317.648 75.5601 319.058 74.1501 320.778 74.1501C322.508 74.1501 323.908 75.5601 323.908 77.3001C323.908 79.0401 322.498 80.4501 320.778 80.4501C319.058 80.4501 317.648 79.0401 317.648 77.3001ZM301.288 77.3001C301.288 75.5601 302.698 74.1501 304.418 74.1501C306.148 74.1501 307.548 75.5601 307.548 77.3001C307.548 79.0401 306.138 80.4501 304.418 80.4501C302.688 80.4501 301.288 79.0401 301.288 77.3001ZM288.048 74.1501C289.778 74.1501 291.178 75.5601 291.178 77.3001C291.178 79.0401 289.768 80.4501 288.048 80.4501C286.318 80.4501 284.918 79.0401 284.918 77.3001C284.918 75.5701 286.318 74.1501 288.048 74.1501Z" fill="#FFBE16"/>
<path d="M406.158 205.27L396.308 195.36C396.028 195.08 395.638 194.92 395.248 194.92C394.858 194.92 394.468 195.08 394.188 195.36L384.338 205.27C384.058 205.55 383.898 205.93 383.898 206.34C383.898 206.75 384.048 207.12 384.338 207.41C384.908 207.98 385.888 207.98 386.448 207.41L393.218 200.6C393.298 200.52 393.418 200.49 393.528 200.54C393.638 200.58 393.698 200.69 393.698 200.8C393.698 200.81 393.698 200.84 393.688 200.85C393.688 224.46 384.598 246.8 368.098 263.71C351.618 280.6 329.628 290.15 306.188 290.62C306.118 290.62 306.038 290.59 305.978 290.54C305.928 290.49 305.888 290.41 305.888 290.34V276.58H302.898V290.34C302.898 290.41 302.868 290.49 302.808 290.54C302.758 290.59 302.678 290.63 302.608 290.62C279.168 290.16 257.188 280.6 240.698 263.71C224.188 246.79 215.098 224.46 215.098 200.82C215.098 200.71 215.168 200.59 215.268 200.55C215.368 200.51 215.498 200.52 215.578 200.6L222.348 207.41C222.628 207.69 223.008 207.85 223.408 207.85C223.808 207.85 224.178 207.7 224.468 207.41C224.748 207.13 224.908 206.75 224.908 206.34C224.908 205.93 224.758 205.56 224.468 205.27L214.618 195.36C214.338 195.08 213.958 194.92 213.558 194.92C213.168 194.92 212.778 195.08 212.498 195.36L202.648 205.27C202.368 205.55 202.208 205.93 202.208 206.34C202.208 206.75 202.358 207.12 202.648 207.41C203.218 207.98 204.198 207.98 204.758 207.41L211.638 200.49C211.688 200.44 211.768 200.41 211.838 200.41C211.878 200.41 211.918 200.42 211.958 200.44C212.068 200.49 212.128 200.6 212.128 200.71C212.128 200.74 212.118 200.76 212.118 200.78C212.118 200.79 212.108 200.81 212.108 200.82C212.108 252.01 253.508 293.65 304.398 293.65C355.288 293.65 396.688 252.01 396.688 200.82C396.688 200.81 396.688 200.79 396.678 200.78C396.678 200.76 396.668 200.73 396.668 200.71C396.658 200.59 396.718 200.48 396.828 200.43C396.938 200.38 397.058 200.4 397.148 200.49L404.028 207.41C404.308 207.69 404.688 207.85 405.088 207.85C405.488 207.85 405.858 207.7 406.148 207.41C406.428 207.13 406.588 206.75 406.588 206.34C406.598 205.94 406.448 205.56 406.158 205.27Z" fill="#FFBE16"/>
<path d="M254.158 114.53C254.788 115.58 255.568 116.88 255.568 118.11C255.568 119.34 254.788 120.64 254.158 121.69C253.408 122.94 252.688 124.13 253.368 125.33C254.038 126.52 255.558 126.52 256.138 126.52H264.778C269.528 126.52 273.388 122.74 273.388 118.1C273.388 113.46 269.518 109.69 264.778 109.69H256.138C255.568 109.69 254.038 109.69 253.368 110.89C252.698 112.09 253.408 113.27 254.158 114.53ZM256.818 113.13C256.768 113.04 256.768 112.94 256.808 112.84C256.858 112.75 256.958 112.7 257.058 112.7H264.778C267.878 112.7 270.398 115.13 270.398 118.1C270.398 121.08 267.878 123.51 264.778 123.51H257.058C256.958 123.51 256.868 123.46 256.808 123.36C256.758 123.27 256.758 123.16 256.818 123.07C257.698 121.6 258.568 120 258.568 118.09C258.568 116.2 257.708 114.61 256.818 113.13Z" fill="#FFBE16"/>
<path d="M300.048 147.77V144.75C292.088 145.33 284.468 147.47 277.378 151.11L278.788 153.76C285.438 150.36 292.588 148.34 300.048 147.77Z" fill="#FFBE16"/>
<path d="M355.298 204.54C355.298 178.13 334.888 155.79 308.778 153.55V156.57C320.578 157.65 331.508 163.08 339.598 171.9C347.788 180.82 352.298 192.42 352.298 204.54C352.298 212.1 350.598 219.34 347.248 226.06L349.898 227.48C353.478 220.32 355.298 212.6 355.298 204.54Z" fill="#FFBE16"/>
<path d="M304.418 273.36C342.138 273.36 372.828 242.49 372.828 204.54C372.828 168.26 344.718 138.15 308.778 135.86V138.88C343.038 141.16 369.828 169.95 369.828 204.54C369.828 240.83 340.478 270.35 304.408 270.35C268.338 270.35 238.998 240.83 238.998 204.54C238.998 169.96 265.788 141.17 300.048 138.88V135.86C264.108 138.15 235.998 168.25 235.998 204.54C236.008 242.49 266.688 273.36 304.418 273.36Z" fill="#FFBE16"/>
<path d="M300.048 156.57V153.55C293.538 154.11 287.288 155.9 281.468 158.86L282.878 161.51C288.258 158.78 294.028 157.12 300.048 156.57Z" fill="#FFBE16"/>
<path d="M308.778 165.23C318.278 166.29 327.068 170.82 333.538 178C340.108 185.3 343.738 194.72 343.738 204.54C343.738 210.67 342.368 216.55 339.688 222.01L342.338 223.43C345.258 217.52 346.738 211.17 346.738 204.54C346.738 182.59 330.448 164.44 308.788 162.2V165.23H308.778Z" fill="#FFBE16"/>
<path d="M244.798 204.54C244.798 237.6 271.538 264.5 304.408 264.5C313.908 264.5 323.348 262.19 331.748 257.81L330.338 255.16C322.368 259.31 313.398 261.5 304.398 261.5C273.178 261.5 247.788 235.95 247.788 204.55C247.788 195.44 249.998 186.37 254.168 178.32L251.528 176.91C247.128 185.39 244.798 194.94 244.798 204.54Z" fill="#FFBE16"/>
<path d="M265.088 204.54C265.088 198.27 266.598 192.03 269.438 186.47L266.798 185.06C263.718 191.05 262.098 197.78 262.098 204.54C262.098 228.01 281.078 247.1 304.408 247.1C311.078 247.1 317.718 245.49 323.638 242.45L322.228 239.8C316.748 242.62 310.588 244.11 304.408 244.11C282.728 244.1 265.088 226.35 265.088 204.54Z" fill="#FFBE16"/>
<path d="M253.528 204.54C253.528 232.76 276.358 255.72 304.408 255.72C312.478 255.72 320.508 253.76 327.658 250.05L326.248 247.4C319.528 250.87 311.988 252.71 304.408 252.71C277.998 252.71 256.518 231.1 256.518 204.54C256.518 196.86 258.368 189.22 261.868 182.43L259.228 181.01C255.508 188.24 253.528 196.37 253.528 204.54Z" fill="#FFBE16"/>
<path d="M300.048 165.23V162.2C294.958 162.73 290.058 164.16 285.498 166.47L286.908 169.13C291.038 167.06 295.448 165.75 300.048 165.23Z" fill="#FFBE16"/>
<path d="M199.148 143.87L199.158 143.79C200.088 143.79 200.408 143.4 200.508 142.95L202.428 133.86C202.518 133.41 202.378 133.01 201.438 133.01L201.468 132.93H204.188L201.868 143.87H199.148ZM202.748 143.79C206.638 143.71 207.308 143.35 208.348 141.06H208.438L207.748 143.88H202.718L202.748 143.79ZM203.908 138.25L203.918 138.16L205.648 138.11C206.638 138.06 207.078 137.73 207.638 136.7H207.728L207.088 139.69H206.998C206.888 138.66 206.588 138.36 205.608 138.31L203.908 138.25ZM209.818 132.93L209.248 135.63H209.158C209.268 133.44 208.828 133.09 205.028 133.01L205.058 132.93H209.818Z" fill="#FFBE16"/>
<path d="M212.488 142C211.938 142.01 211.578 142.37 211.578 142.84C211.578 143.32 212.058 143.89 213.128 143.95L213.118 144.03C211.388 143.96 210.488 143.4 210.488 142.6C210.488 141.99 211.098 141.52 211.698 141.52C212.138 141.53 212.428 141.75 212.488 142ZM214.898 135.75C213.788 135.78 212.988 136.39 212.988 137.32C212.988 139.14 217.198 139.61 217.198 141.76C217.198 142.98 215.988 143.98 213.758 144.03L213.768 143.95C215.218 143.79 215.898 143.11 215.898 142.27C215.898 140.58 211.688 139.94 211.688 137.74C211.688 136.6 212.938 135.7 214.898 135.65V135.75ZM217.898 137.03C217.898 137.56 217.448 138 216.778 138C216.328 138 216.088 137.8 216.048 137.48C216.558 137.47 216.858 137.08 216.858 136.71C216.858 136.27 216.408 135.81 215.568 135.75L215.578 135.67C217.078 135.75 217.898 136.31 217.898 137.03Z" fill="#FFBE16"/>
<path d="M221.938 141.18C221.568 142.94 221.928 143.66 222.868 143.66C223.458 143.66 224.038 143.35 224.598 142.82V142.9C224.038 143.56 223.078 144.03 222.068 144.03C220.438 144.03 219.998 143.18 220.458 141.07L221.448 136.44H220.248L220.428 136.23H221.478L221.908 134.22C222.468 134.17 223.078 133.98 223.558 133.61L222.998 136.23H225.798L225.608 136.44H222.958L221.938 141.18Z" fill="#FFBE16"/>
<path d="M226.448 143.15C226.448 142.39 227.088 141.88 227.888 141.88C228.498 141.88 228.878 142.21 228.878 142.75C228.878 143.49 228.248 144.04 227.438 144.04C226.838 144.03 226.448 143.68 226.448 143.15Z" fill="#FFBE16"/>
<path d="M376.988 143.1C375.978 143.1 375.478 143.4 375.148 143.87H375.068C375.398 142.68 376.238 141.95 377.378 141.95C378.668 141.95 379.778 142.64 380.738 142.64C381.848 142.64 382.628 142.2 382.988 141.22H383.068C382.698 142.99 381.868 144.02 380.348 144.02C379.228 144.03 378.148 143.1 376.988 143.1ZM382.488 134.51C382.488 133.56 381.998 132.95 381.128 132.85L381.158 132.77C382.928 132.8 384.028 133.64 384.028 134.99C384.028 137.87 379.708 139.9 377.348 141.37H377.108C379.458 139.56 382.488 136.99 382.488 134.51ZM377.088 135.41C377.088 134.09 378.618 132.82 380.378 132.77L380.348 132.85C379.078 133.02 378.288 133.96 378.288 134.83C378.288 135.43 378.658 135.88 379.378 135.89C379.168 136.37 378.668 136.6 378.198 136.6C377.508 136.6 377.088 136.1 377.088 135.41Z" fill="#FFBE16"/>
<path d="M385.858 140.38C385.858 136.97 388.108 132.85 391.288 132.77L391.278 132.85C388.878 133.17 387.348 138.57 387.348 141.25C387.348 142.87 387.918 143.82 388.938 143.95L388.918 144.03C386.898 144.02 385.858 142.54 385.858 140.38ZM395.078 136.42C395.078 139.83 392.828 143.95 389.648 144.03L389.658 143.95C392.058 143.63 393.598 138.22 393.598 135.55C393.598 133.93 393.038 132.97 392.008 132.85L392.018 132.77C394.038 132.78 395.078 134.27 395.078 136.42Z" fill="#FFBE16"/>
<path d="M396.238 143.79C397.188 143.79 397.508 143.39 397.588 142.95L399.318 134.84C399.448 134.21 399.068 133.99 398.088 134.04L398.098 133.95C399.088 133.84 400.448 133.34 401.268 132.78L399.108 142.97C399.028 143.4 399.178 143.81 400.098 143.81L400.088 143.89H396.238V143.79Z" fill="#FFBE16"/>
<path d="M402.868 141.94C402.868 140.81 403.748 139.83 404.858 139.83C405.428 139.83 405.818 140.2 405.808 140.65C404.688 140.64 403.938 141.39 403.938 142.45C403.938 143.25 404.428 143.9 405.188 143.94L405.178 144.02C403.958 144 402.868 143.12 402.868 141.94ZM405.908 143.95C407.678 143.59 409.028 141.46 409.028 139.65C409.028 138.27 408.078 137.35 406.698 137.35C405.978 137.35 405.228 137.48 404.548 137.74L404.558 137.65C405.358 137.34 406.248 137.13 407.368 137.13C409.298 137.13 410.578 138.18 410.578 139.74C410.578 142.09 408.368 143.84 405.878 144.04L405.908 143.95ZM405.478 133.3C405.928 132.94 406.548 132.77 407.248 132.77C408.358 132.77 408.998 133.37 410.038 133.37C410.788 133.37 411.228 133.08 411.558 132.37C411.608 132.52 411.638 132.69 411.638 132.9C411.638 133.05 411.618 133.19 411.588 133.35C411.418 134.22 410.658 134.75 409.598 134.75C408.478 134.75 407.808 134.27 406.908 134.27C405.738 134.27 405.288 134.71 404.878 136.6H404.778L405.478 133.3Z" fill="#FFBE16"/>
</g>
</svg>
