<svg width="815" height="424" viewBox="0 0 815 424" fill="none" xmlns="http://www.w3.org/2000/svg">
<path d="M783.045 257.705C762.547 207.5 733.205 162.41 695.825 123.681C658.408 84.9148 614.826 54.477 566.289 33.2108C515.99 11.1764 462.572 0 407.505 0C352.437 0 299.01 11.1764 248.711 33.2202C200.174 54.4957 156.592 84.9335 119.175 123.69C81.7951 162.419 52.4534 207.509 31.9555 257.714C10.7549 309.662 0 364.832 0 421.688C0 422.279 0.00936835 422.859 0.00936835 423.45H28.1144C28.1144 422.859 28.1051 422.279 28.1051 421.688C28.1051 368.485 38.1573 316.894 57.9807 268.328C77.1203 221.449 104.513 179.348 139.401 143.205C174.261 107.09 214.826 78.7504 259.991 58.9551C306.711 38.4852 356.344 28.1051 407.505 28.1051C458.665 28.1051 508.299 38.4852 555.009 58.9551C600.174 78.7504 640.749 107.09 675.599 143.205C710.487 179.348 737.88 221.449 757.019 268.328C776.843 316.885 786.895 368.485 786.895 421.688C786.895 422.279 786.886 422.859 786.886 423.45H814.991C814.991 422.859 815 422.279 815 421.688C815 364.832 804.245 309.662 783.045 257.705Z" fill="url(#paint0_linear_580_216)"/>
<path d="M666.777 153.781C633.136 118.931 593.948 91.5565 550.301 72.4357C505.07 52.6122 457.029 42.5693 407.508 42.5693C357.987 42.5693 309.937 52.6122 264.706 72.4357C221.059 91.5658 181.871 118.931 148.23 153.781C114.625 188.603 88.244 229.14 69.8165 274.267C50.7519 320.969 41.0837 370.565 41.0837 421.679C41.0837 422.269 41.0931 422.85 41.0931 423.44H69.2075C69.2075 422.85 69.1888 422.269 69.1888 421.679C69.1888 374.228 78.1543 328.201 95.8418 284.891C112.911 243.08 137.344 205.532 168.456 173.295C232.339 107.117 317.235 70.665 407.508 70.665C497.782 70.665 582.678 107.117 646.56 173.295C677.673 205.532 702.105 243.08 719.175 284.891C736.862 328.201 745.828 374.228 745.828 421.679C745.828 422.269 745.809 422.85 745.809 423.44H773.923C773.923 422.85 773.933 422.269 773.933 421.679C773.933 370.565 764.264 320.969 745.2 274.267C726.763 229.14 700.382 188.603 666.777 153.781Z" fill="url(#paint1_linear_580_216)"/>
<path d="M637.724 183.882C607.858 152.939 573.064 128.637 534.307 111.652C494.145 94.0493 451.482 85.1306 407.497 85.1306C363.513 85.1306 320.859 94.0587 280.687 111.652C241.93 128.637 207.136 152.939 177.27 183.882C147.441 214.789 124.02 250.782 107.663 290.841C90.7436 332.296 82.1622 376.318 82.1622 421.689C82.1622 422.279 82.181 422.86 82.181 423.45H110.286C110.286 422.86 110.267 422.279 110.267 421.689C110.267 339.2 141.248 261.677 197.496 203.397C253.622 145.247 328.194 113.226 407.497 113.226C486.8 113.226 561.372 145.247 617.498 203.397C673.746 261.677 704.727 339.2 704.727 421.689C704.727 422.279 704.708 422.86 704.708 423.45H732.813C732.813 422.86 732.832 422.279 732.832 421.689C732.832 376.318 724.251 332.296 707.331 290.841C690.984 250.782 667.563 214.789 637.724 183.882Z" fill="url(#paint2_linear_580_216)"/>
<path d="M407.506 127.691C331.482 127.691 260.039 158.334 206.33 213.982C152.752 269.49 123.251 343.256 123.251 421.698C123.251 422.288 123.27 422.869 123.27 423.459H151.375C151.375 422.869 151.356 422.288 151.356 421.698C151.356 350.582 178.066 283.749 226.556 233.506C274.916 183.395 339.183 155.805 407.506 155.805C475.829 155.805 540.096 183.404 588.456 233.506C636.946 283.749 663.656 350.582 663.656 421.698C663.656 422.288 663.637 422.869 663.637 423.459H691.742C691.742 422.869 691.761 422.288 691.761 421.698C691.761 343.266 662.25 269.499 608.682 213.982C554.964 158.334 483.521 127.691 407.506 127.691Z" fill="url(#paint3_linear_580_216)"/>
<path d="M407.504 170.251C342.46 170.251 281.331 196.464 235.379 244.074C189.559 291.543 164.33 354.62 164.33 421.688C164.33 422.279 164.349 422.86 164.349 423.45H192.454C192.454 422.86 192.435 422.279 192.435 421.688C192.435 361.937 214.872 305.793 255.596 263.598C296.199 221.534 350.142 198.366 407.495 198.366C464.848 198.366 518.791 221.534 559.393 263.598C600.127 305.802 622.555 361.946 622.555 421.688C622.555 422.279 622.536 422.86 622.536 423.45H650.641C650.641 422.86 650.66 422.279 650.66 421.688C650.66 354.62 625.431 291.543 579.61 244.074C533.677 196.473 472.549 170.251 407.504 170.251Z" fill="url(#paint4_linear_580_216)"/>
<path d="M407.508 212.821C353.434 212.821 302.62 234.612 264.434 274.175C226.38 313.606 205.414 365.994 205.414 421.689C205.414 422.279 205.432 422.86 205.432 423.45H233.537C233.528 422.86 233.519 422.279 233.519 421.689C233.519 322.009 311.566 240.926 407.508 240.926C503.449 240.926 581.497 322.019 581.497 421.689C581.497 422.279 581.478 422.86 581.478 423.45H609.583C609.583 422.86 609.602 422.279 609.602 421.689C609.602 365.994 588.645 313.606 550.581 274.175C512.386 234.612 461.582 212.821 407.508 212.821Z" fill="url(#paint5_linear_580_216)"/>
<path d="M407.502 255.381C318.718 255.381 246.497 329.991 246.497 421.688C246.497 422.278 246.516 422.859 246.516 423.449H274.621C274.612 422.859 274.602 422.278 274.602 421.688C274.602 345.486 334.223 283.486 407.502 283.486C480.781 283.486 540.401 345.486 540.401 421.688C540.401 422.278 540.383 422.859 540.383 423.449H568.488C568.497 422.859 568.506 422.278 568.506 421.688C568.506 329.991 496.276 255.381 407.502 255.381Z" fill="url(#paint6_linear_580_216)"/>
<path d="M407.505 297.942C341.374 297.942 287.581 353.449 287.581 421.688C287.581 422.278 287.59 422.859 287.6 423.449H315.705C315.695 422.859 315.686 422.278 315.686 421.688C315.686 368.954 356.879 326.047 407.505 326.047C458.132 326.047 499.325 368.954 499.325 421.688C499.325 422.278 499.315 422.859 499.306 423.449H527.411C527.42 422.859 527.43 422.278 527.43 421.688C527.43 353.459 473.627 297.942 407.505 297.942Z" fill="url(#paint7_linear_580_216)"/>
<path d="M407.509 340.512C364.03 340.512 328.665 376.927 328.665 421.689C328.665 422.279 328.674 422.86 328.684 423.45H356.807C356.789 422.87 356.76 422.279 356.76 421.689C356.76 392.422 379.526 368.617 407.499 368.617C435.473 368.617 458.238 392.432 458.238 421.689C458.238 422.279 458.21 422.86 458.192 423.45H486.315C486.325 422.87 486.334 422.279 486.334 421.689C486.353 376.927 450.978 340.512 407.509 340.512Z" fill="url(#paint8_linear_580_216)"/>
<path d="M407.505 383.475C386.436 383.475 369.292 400.619 369.292 421.688C369.292 422.279 369.31 422.869 369.338 423.45H397.565C397.462 422.878 397.406 422.288 397.406 421.688C397.406 416.114 401.94 411.58 407.514 411.58C413.089 411.58 417.623 416.114 417.623 421.688C417.623 422.288 417.557 422.878 417.464 423.45H445.69C445.719 422.869 445.737 422.279 445.737 421.688C445.709 400.619 428.574 383.475 407.505 383.475Z" fill="url(#paint9_linear_580_216)"/>
<defs>
<linearGradient id="paint0_linear_580_216" x1="0" y1="211.725" x2="815.003" y2="211.725" gradientUnits="userSpaceOnUse">
<stop offset="0.005618" stop-color="#FFC876"/>
<stop offset="0.3166" stop-color="#F7D1A8"/>
<stop offset="0.6195" stop-color="#F1D9D1"/>
<stop offset="0.8571" stop-color="#ECDEEB"/>
<stop offset="1" stop-color="#EBE0F4"/>
</linearGradient>
<linearGradient id="paint1_linear_580_216" x1="41.0861" y1="233.006" x2="773.924" y2="233.006" gradientUnits="userSpaceOnUse">
<stop offset="0.005618" stop-color="#FFC876"/>
<stop offset="0.3166" stop-color="#F7D1A8"/>
<stop offset="0.6195" stop-color="#F1D9D1"/>
<stop offset="0.8571" stop-color="#ECDEEB"/>
<stop offset="1" stop-color="#EBE0F4"/>
</linearGradient>
<linearGradient id="paint2_linear_580_216" x1="82.1661" y1="254.289" x2="732.84" y2="254.289" gradientUnits="userSpaceOnUse">
<stop offset="0.005618" stop-color="#FFC876"/>
<stop offset="0.3166" stop-color="#F7D1A8"/>
<stop offset="0.6195" stop-color="#F1D9D1"/>
<stop offset="0.8571" stop-color="#ECDEEB"/>
<stop offset="1" stop-color="#EBE0F4"/>
</linearGradient>
<linearGradient id="paint3_linear_580_216" x1="123.248" y1="275.57" x2="691.757" y2="275.57" gradientUnits="userSpaceOnUse">
<stop offset="0.005618" stop-color="#FFC876"/>
<stop offset="0.3166" stop-color="#F7D1A8"/>
<stop offset="0.6195" stop-color="#F1D9D1"/>
<stop offset="0.8571" stop-color="#ECDEEB"/>
<stop offset="1" stop-color="#EBE0F4"/>
</linearGradient>
<linearGradient id="paint4_linear_580_216" x1="164.328" y1="296.852" x2="650.674" y2="296.852" gradientUnits="userSpaceOnUse">
<stop offset="0.005618" stop-color="#FFC876"/>
<stop offset="0.3166" stop-color="#F7D1A8"/>
<stop offset="0.6195" stop-color="#F1D9D1"/>
<stop offset="0.8571" stop-color="#ECDEEB"/>
<stop offset="1" stop-color="#EBE0F4"/>
</linearGradient>
<linearGradient id="paint5_linear_580_216" x1="205.413" y1="318.134" x2="609.596" y2="318.134" gradientUnits="userSpaceOnUse">
<stop offset="0.005618" stop-color="#FFC876"/>
<stop offset="0.3166" stop-color="#F7D1A8"/>
<stop offset="0.6195" stop-color="#F1D9D1"/>
<stop offset="0.8571" stop-color="#ECDEEB"/>
<stop offset="1" stop-color="#EBE0F4"/>
</linearGradient>
<linearGradient id="paint6_linear_580_216" x1="246.49" y1="339.415" x2="568.507" y2="339.415" gradientUnits="userSpaceOnUse">
<stop offset="0.005618" stop-color="#FFC876"/>
<stop offset="0.3166" stop-color="#F7D1A8"/>
<stop offset="0.6195" stop-color="#F1D9D1"/>
<stop offset="0.8571" stop-color="#ECDEEB"/>
<stop offset="1" stop-color="#EBE0F4"/>
</linearGradient>
<linearGradient id="paint7_linear_580_216" x1="287.575" y1="360.697" x2="527.429" y2="360.697" gradientUnits="userSpaceOnUse">
<stop offset="0.005618" stop-color="#FFC876"/>
<stop offset="0.3166" stop-color="#F7D1A8"/>
<stop offset="0.6195" stop-color="#F1D9D1"/>
<stop offset="0.8571" stop-color="#ECDEEB"/>
<stop offset="1" stop-color="#EBE0F4"/>
</linearGradient>
<linearGradient id="paint8_linear_580_216" x1="328.66" y1="381.98" x2="486.351" y2="381.98" gradientUnits="userSpaceOnUse">
<stop offset="0.005618" stop-color="#FFC876"/>
<stop offset="0.3166" stop-color="#F7D1A8"/>
<stop offset="0.6195" stop-color="#F1D9D1"/>
<stop offset="0.8571" stop-color="#ECDEEB"/>
<stop offset="1" stop-color="#EBE0F4"/>
</linearGradient>
<linearGradient id="paint9_linear_580_216" x1="369.29" y1="403.464" x2="445.713" y2="403.464" gradientUnits="userSpaceOnUse">
<stop offset="0.005518" stop-color="#FFC876"/>
<stop offset="0.005618" stop-color="#FFC876"/>
<stop offset="0.3166" stop-color="#F7D1A8"/>
<stop offset="0.6195" stop-color="#F1D9D1"/>
<stop offset="0.8571" stop-color="#ECDEEB"/>
<stop offset="1" stop-color="#EBE0F4"/>
</linearGradient>
</defs>
</svg>
