<svg width="3988" height="441" viewBox="0 0 3988 441" fill="none" xmlns="http://www.w3.org/2000/svg">
<path d="M0 85.5498H3988" stroke="#FFEEED" stroke-width="21" stroke-miterlimit="10"/>
<path d="M0 152.75H3988" stroke="#FFEEED" stroke-width="21" stroke-miterlimit="10"/>
<path d="M0 219.95H3988" stroke="#FFEEED" stroke-width="21" stroke-miterlimit="10"/>
<path d="M0 288.2H3988" stroke="#FFEEED" stroke-width="21" stroke-miterlimit="10"/>
<path d="M0 355.4H3988" stroke="#FFEEED" stroke-width="21" stroke-miterlimit="10"/>
<path d="M0 429.95H3988" stroke="#FFEEED" stroke-width="21" stroke-miterlimit="10"/>
<path d="M0 11H3988" stroke="#FFEEED" stroke-width="21" stroke-miterlimit="10"/>
<path d="M2453.07 139.716C2472.47 139.716 2488.26 155.499 2488.26 174.907C2488.26 194.315 2472.48 210.098 2453.07 210.098C2433.66 210.098 2417.88 194.315 2417.88 174.907C2417.88 155.499 2433.66 139.716 2453.07 139.716ZM2453.07 115.964C2420.52 115.964 2394.13 142.348 2394.13 174.898C2394.13 207.447 2420.52 233.831 2453.07 233.831C2485.62 233.831 2512 207.447 2512 174.898C2512 142.348 2485.62 115.964 2453.07 115.964Z" fill="white" stroke="#FFEEED" stroke-miterlimit="10"/>
<path d="M1535.93 139.495C1555.33 139.495 1571.12 155.278 1571.12 174.686C1571.12 194.094 1555.34 209.877 1535.93 209.877C1516.53 209.877 1500.74 194.094 1500.74 174.686C1500.74 155.278 1516.53 139.495 1535.93 139.495ZM1535.93 115.743C1503.38 115.743 1477 142.127 1477 174.677C1477 207.227 1503.38 233.61 1535.93 233.61C1568.48 233.61 1594.87 207.227 1594.87 174.677C1594.87 142.127 1568.48 115.743 1535.93 115.743Z" fill="white" stroke="#FFEEED" stroke-miterlimit="10"/>
<path d="M2293.26 366.367H1696.01C1675.68 366.367 1659.2 349.885 1659.2 329.557V95.8104C1659.2 75.4819 1675.68 59 1696.01 59H2293.26C2313.59 59 2330.07 75.4819 2330.07 95.8104V329.557C2330.07 349.885 2313.59 366.367 2293.26 366.367Z" fill="#FFEEED" stroke="white" stroke-width="21" stroke-miterlimit="10"/>
<path d="M2280.84 110.534H1708.43V239.371H2280.84V110.534Z" fill="#FF5B16"/>
<path d="M1823.81 181.367C1828.71 173.702 1831.72 165.06 1832.75 156.033C1831.83 156.033 1830.91 156.033 1829.99 156.033C1829.1 163.864 1829.49 171.751 1831.08 179.472C1831.29 180.493 1832.7 180.806 1833.39 180.079C1837.02 176.242 1839.82 171.833 1841.8 166.938C1840.92 166.938 1840.02 166.938 1839.14 166.938C1840.07 169.606 1840.39 172.284 1840.13 175.1C1840.01 176.536 1842.04 176.886 1842.71 175.8C1844.83 172.358 1846.95 168.925 1849.07 165.484C1848.21 165.254 1847.36 165.024 1846.49 164.784C1846.75 169.57 1847 174.346 1847.26 179.131C1847.31 180.217 1848.79 181.091 1849.61 180.107C1852.36 176.84 1855.09 173.573 1857.83 170.306C1857.06 170.103 1856.29 169.901 1855.52 169.698C1856.39 172.468 1857.25 175.238 1858.12 178.008C1858.44 179.039 1859.63 179.306 1860.43 178.616C1862.5 176.794 1864.56 174.972 1866.63 173.159C1865.9 173.067 1865.18 172.975 1864.46 172.883C1865.11 174.014 1865.41 175.211 1865.22 176.518C1865.03 177.788 1866.47 178.929 1867.53 177.861C1869.7 175.662 1871.86 173.462 1874.04 171.272C1873.25 170.95 1872.46 170.619 1871.68 170.297C1871.42 172.883 1872.67 175.211 1874.79 176.628C1875.16 176.876 1875.82 176.904 1876.18 176.628C1878.26 175.027 1880.34 173.426 1882.42 171.824C1881.73 171.429 1881.04 171.033 1880.34 170.628C1880.85 174.806 1882.48 178.542 1885.24 181.726C1885.74 182.306 1886.67 182.196 1887.19 181.726C1890.93 178.312 1894.69 174.898 1898.43 171.484C1897.78 171.484 1897.14 171.484 1896.48 171.484C1897.25 172.11 1897.81 172.772 1898.28 173.646C1898.51 174.07 1898.99 174.337 1899.47 174.327C1914.1 174.125 1928.71 174.033 1943.33 174.07C1950.58 174.088 1957.84 174.134 1965.1 174.217C1968.7 174.254 1972.31 174.337 1975.92 174.346C1978.99 174.355 1982.16 174.217 1985.05 173.076C1989.97 171.143 1993.92 165.198 1990.85 160.109C1990.13 158.904 1988.35 159.456 1988.28 160.809C1987.91 168.079 1987.55 175.349 1987.18 182.628C1987.13 183.742 1988.79 184.561 1989.54 183.604C1991.58 180.99 1993.62 178.386 1995.66 175.772C1994.93 175.68 1994.21 175.588 1993.49 175.496C1994.08 176.84 1994.68 178.192 1995.28 179.536C1995.58 180.208 1996.59 180.383 1997.17 180.033C1999.34 178.726 2000.84 176.858 2001.74 174.493C2000.9 174.603 2000.06 174.714 1999.22 174.824C2000.04 176.177 2000.86 177.53 2001.68 178.883C2002.1 179.582 2003.27 179.867 2003.85 179.159C2006.3 176.168 2008.75 173.177 2011.2 170.186C2010.47 170.094 2009.76 170.002 2009.03 169.91C2010.4 173.011 2011.77 176.113 2013.15 179.214C2013.49 179.978 2014.8 180.134 2015.32 179.49C2019.02 174.944 2022.72 170.398 2026.42 165.852C2025.65 165.649 2024.89 165.447 2024.11 165.244C2024.78 167.343 2025.44 169.441 2026.1 171.539C2026.39 172.432 2027.32 172.763 2028.13 172.367C2031.79 170.582 2034.79 167.858 2037.01 164.444C2036.15 164.214 2035.29 163.984 2034.43 163.744C2034.81 167.306 2035.18 170.867 2035.55 174.438C2035.67 175.57 2037.01 176.334 2037.91 175.413C2040.03 173.251 2042.17 171.079 2044.29 168.916C2043.57 168.824 2042.85 168.732 2042.12 168.64C2043.01 170.297 2043.57 172.045 2043.76 173.913C2043.88 175.1 2045.18 175.735 2046.12 174.889C2050.87 170.573 2057.45 169.422 2063.6 168.511C2071.29 167.37 2079.01 166.386 2086.73 165.511C2101.96 163.781 2117.24 162.52 2132.55 161.729C2141.24 161.278 2149.96 160.993 2158.66 160.846C2160.44 160.818 2160.44 158.057 2158.66 158.085C2127 158.609 2095.39 161.14 2064.04 165.677C2056.98 166.698 2049.63 167.978 2044.17 172.938C2044.95 173.26 2045.74 173.591 2046.52 173.913C2046.27 171.539 2045.63 169.349 2044.51 167.241C2044.08 166.459 2042.94 166.349 2042.33 166.965C2040.21 169.128 2038.07 171.3 2035.95 173.462C2036.73 173.784 2037.52 174.116 2038.3 174.438C2037.93 170.876 2037.55 167.315 2037.18 163.744C2037.04 162.41 2035.4 161.83 2034.6 163.045C2032.63 166.073 2029.96 168.392 2026.72 169.975C2027.39 170.251 2028.07 170.527 2028.74 170.803C2028.08 168.705 2027.42 166.606 2026.75 164.508C2026.47 163.606 2025.14 163.045 2024.44 163.901C2020.74 168.447 2017.05 172.993 2013.35 177.539C2014.07 177.631 2014.79 177.723 2015.52 177.815C2014.15 174.714 2012.78 171.613 2011.39 168.511C2011.05 167.738 2009.76 167.591 2009.22 168.235C2006.78 171.226 2004.32 174.217 2001.87 177.208C2002.6 177.3 2003.32 177.392 2004.04 177.484C2003.22 176.131 2002.4 174.778 2001.58 173.426C2000.93 172.34 1999.48 172.68 1999.06 173.757C1998.43 175.422 1997.28 176.729 1995.75 177.649C1996.38 177.815 1997.01 177.981 1997.64 178.146C1997.04 176.803 1996.44 175.45 1995.84 174.107C1995.51 173.352 1994.19 173.168 1993.67 173.83C1991.63 176.444 1989.59 179.048 1987.55 181.662C1988.33 181.984 1989.12 182.315 1989.91 182.637C1990.27 175.367 1990.63 168.097 1991 160.818C1990.15 161.048 1989.29 161.278 1988.43 161.517C1989.7 163.625 1989.04 166.137 1987.58 167.978C1985.89 170.113 1983.21 171.005 1980.59 171.364C1977.57 171.778 1974.46 171.576 1971.41 171.539C1968.17 171.493 1964.94 171.456 1961.7 171.429C1948.42 171.3 1935.14 171.272 1921.85 171.346C1914.37 171.392 1906.9 171.465 1899.42 171.567C1899.81 171.797 1900.21 172.027 1900.61 172.248C1900.04 171.18 1899.33 170.297 1898.39 169.524C1897.79 169.036 1897.03 168.981 1896.44 169.524C1892.69 172.938 1888.94 176.352 1885.19 179.766C1885.84 179.766 1886.49 179.766 1887.14 179.766C1884.91 177.189 1883.46 174.014 1883.06 170.619C1882.94 169.726 1881.91 168.705 1880.98 169.422C1878.9 171.024 1876.82 172.625 1874.74 174.226C1875.2 174.226 1875.67 174.226 1876.13 174.226C1874.76 173.315 1874.22 171.861 1874.39 170.278C1874.51 169.054 1872.81 168.502 1872.03 169.303C1869.86 171.502 1867.7 173.702 1865.52 175.892C1866.3 176.343 1867.06 176.784 1867.83 177.235C1868.15 175.165 1867.85 173.297 1866.79 171.475C1866.32 170.665 1865.29 170.619 1864.62 171.198C1862.55 173.021 1860.49 174.843 1858.42 176.656C1859.19 176.858 1859.96 177.061 1860.73 177.263C1859.86 174.493 1859 171.723 1858.13 168.953C1857.85 168.042 1856.52 167.508 1855.82 168.346C1853.08 171.613 1850.35 174.88 1847.61 178.146C1848.39 178.469 1849.18 178.8 1849.96 179.122C1849.71 174.337 1849.46 169.56 1849.2 164.775C1849.13 163.422 1847.37 162.879 1846.62 164.076C1844.51 167.517 1842.38 170.95 1840.26 174.392C1841.12 174.622 1841.97 174.852 1842.84 175.091C1843.12 172.054 1842.75 169.073 1841.74 166.192C1841.28 164.839 1839.59 164.941 1839.09 166.192C1837.29 170.628 1834.67 174.649 1831.38 178.119C1832.16 178.321 1832.92 178.524 1833.69 178.726C1832.16 171.244 1831.84 163.606 1832.71 156.023C1832.91 154.256 1830.15 154.275 1829.95 156.023C1828.97 164.563 1826.01 172.735 1821.38 179.969C1820.46 181.469 1822.85 182.858 1823.81 181.367Z" fill="#FFEEED"/>
<path d="M2453.07 139.716C2472.46 139.716 2488.26 155.499 2488.26 174.907C2488.26 194.315 2472.47 210.098 2453.07 210.098C2433.66 210.098 2417.87 194.315 2417.87 174.907C2417.87 155.499 2433.66 139.716 2453.07 139.716Z" fill="#FF5B16" stroke="#FFEEED" stroke-miterlimit="10"/>
<path d="M1535.56 139.716C1554.96 139.716 1570.75 155.499 1570.75 174.907C1570.75 194.315 1554.97 210.098 1535.56 210.098C1516.16 210.098 1500.37 194.315 1500.37 174.907C1500.37 155.499 1516.16 139.716 1535.56 139.716Z" fill="#FF5B16" stroke="#FFEEED" stroke-miterlimit="10"/>
<path d="M2278.54 381.552H2185.59V301.489H2278.54V381.552ZM2159.83 301.489H2066.88V381.552H2159.83V301.489ZM2041.11 301.489H1948.17V381.552H2041.11V301.489ZM1922.4 301.489H1829.45V381.552H1922.4V301.489ZM1803.68 301.489H1710.74V381.552H1803.68V301.489Z" fill="url(#paint0_linear_2229_2)"/>
<defs>
<linearGradient id="paint0_linear_2229_2" x1="1710.73" y1="341.52" x2="2278.53" y2="341.52" gradientUnits="userSpaceOnUse">
<stop offset="0.005618" stop-color="#FFD576"/>
<stop offset="0.3166" stop-color="#F7D9A8"/>
<stop offset="0.6195" stop-color="#F1DDD1"/>
<stop offset="0.8571" stop-color="#ECDFEB"/>
<stop offset="1" stop-color="#EBE0F4"/>
</linearGradient>
</defs>
</svg>
