<svg width="1920" height="441" viewBox="0 0 1920 441" fill="none" xmlns="http://www.w3.org/2000/svg">
<path d="M0 85.5498H1920" stroke="#FFEEED" stroke-width="21" stroke-miterlimit="10"/>
<path d="M0 152.75H1920" stroke="#FFEEED" stroke-width="21" stroke-miterlimit="10"/>
<path d="M0 219.95H1920" stroke="#FFEEED" stroke-width="21" stroke-miterlimit="10"/>
<path d="M0 288.2H1920" stroke="#FFEEED" stroke-width="21" stroke-miterlimit="10"/>
<path d="M0 355.4H1920" stroke="#FFEEED" stroke-width="21" stroke-miterlimit="10"/>
<path d="M0 429.95H1920" stroke="#FFEEED" stroke-width="21" stroke-miterlimit="10"/>
<path d="M0 11H1920" stroke="#FFEEED" stroke-width="21" stroke-miterlimit="10"/>
<path d="M1419.07 139.716C1438.47 139.716 1454.26 155.498 1454.26 174.907C1454.26 194.315 1438.48 210.097 1419.07 210.097C1399.66 210.097 1383.88 194.315 1383.88 174.907C1383.88 155.498 1399.66 139.716 1419.07 139.716ZM1419.07 115.964C1386.52 115.964 1360.13 142.348 1360.13 174.898C1360.13 207.447 1386.52 233.831 1419.07 233.831C1451.62 233.831 1478 207.447 1478 174.898C1478 142.348 1451.62 115.964 1419.07 115.964Z" fill="white" stroke="#FFEEED" stroke-miterlimit="10"/>
<path d="M501.934 139.495C521.333 139.495 537.124 155.278 537.124 174.686C537.124 194.095 521.342 209.877 501.934 209.877C482.525 209.877 466.743 194.095 466.743 174.686C466.743 155.278 482.534 139.495 501.934 139.495ZM501.934 115.744C469.384 115.744 443 142.127 443 174.677C443 207.227 469.384 233.611 501.934 233.611C534.483 233.611 560.867 207.227 560.867 174.677C560.867 142.127 534.483 115.744 501.934 115.744Z" fill="white" stroke="#FFEEED" stroke-miterlimit="10"/>
<path d="M1259.26 366.367H662.011C641.683 366.367 625.201 349.885 625.201 329.557V95.8104C625.201 75.4819 641.683 59 662.011 59H1259.26C1279.59 59 1296.07 75.4819 1296.07 95.8104V329.557C1296.07 349.885 1279.59 366.367 1259.26 366.367Z" fill="#FFEEED" stroke="white" stroke-width="21" stroke-miterlimit="10"/>
<path d="M1246.84 110.534H674.434V239.371H1246.84V110.534Z" fill="#FF5B16"/>
<path d="M789.809 181.367C794.714 173.701 797.723 165.06 798.754 156.032C797.834 156.032 796.913 156.032 795.993 156.032C795.1 163.864 795.487 171.751 797.079 179.472C797.291 180.493 798.699 180.806 799.389 180.079C803.024 176.241 805.821 171.833 807.8 166.938C806.917 166.938 806.024 166.938 805.14 166.938C806.07 169.606 806.392 172.284 806.134 175.1C806.006 176.536 808.039 176.886 808.711 175.8C810.828 172.358 812.953 168.925 815.07 165.484C814.214 165.253 813.358 165.023 812.493 164.784C812.751 169.569 813 174.346 813.257 179.131C813.312 180.217 814.794 181.091 815.613 180.106C818.355 176.84 821.089 173.573 823.831 170.306C823.058 170.103 822.294 169.901 821.521 169.698C822.386 172.468 823.251 175.238 824.116 178.008C824.438 179.039 825.635 179.306 826.426 178.616C828.497 176.794 830.558 174.971 832.629 173.159C831.902 173.066 831.184 172.974 830.457 172.882C831.11 174.014 831.414 175.211 831.221 176.517C831.027 177.787 832.472 178.929 833.531 177.861C835.702 175.662 837.865 173.462 840.037 171.272C839.255 170.95 838.463 170.619 837.681 170.296C837.423 172.882 838.666 175.211 840.791 176.628C841.159 176.876 841.822 176.904 842.181 176.628C844.261 175.027 846.341 173.425 848.42 171.824C847.73 171.428 847.04 171.033 846.341 170.628C846.847 174.806 848.476 178.542 851.236 181.726C851.743 182.306 852.672 182.195 853.187 181.726C856.933 178.312 860.687 174.898 864.433 171.484C863.78 171.484 863.135 171.484 862.482 171.484C863.246 172.109 863.807 172.772 864.276 173.646C864.507 174.07 864.994 174.336 865.473 174.327C880.096 174.125 894.71 174.033 909.332 174.07C916.584 174.088 923.845 174.134 931.097 174.217C934.704 174.254 938.311 174.336 941.919 174.346C944.993 174.355 948.158 174.217 951.048 173.076C955.971 171.143 959.919 165.198 956.855 160.109C956.128 158.904 954.352 159.456 954.278 160.809C953.91 168.079 953.551 175.349 953.183 182.628C953.128 183.742 954.793 184.561 955.539 183.603C957.582 180.99 959.616 178.386 961.658 175.772C960.931 175.68 960.214 175.588 959.487 175.496C960.085 176.84 960.683 178.192 961.281 179.536C961.585 180.208 962.588 180.383 963.168 180.033C965.34 178.726 966.84 176.858 967.741 174.493C966.904 174.603 966.057 174.714 965.22 174.824C966.039 176.177 966.858 177.53 967.677 178.883C968.1 179.582 969.269 179.867 969.849 179.159C972.297 176.168 974.754 173.177 977.202 170.186C976.475 170.094 975.757 170.002 975.03 169.91C976.401 173.011 977.772 176.113 979.153 179.214C979.493 179.978 980.8 180.134 981.324 179.49C985.024 174.944 988.723 170.398 992.423 165.852C991.65 165.649 990.886 165.447 990.113 165.244C990.776 167.342 991.438 169.441 992.101 171.539C992.386 172.431 993.315 172.763 994.125 172.367C997.788 170.582 1000.79 167.858 1003.01 164.444C1002.15 164.214 1001.29 163.984 1000.43 163.744C1000.81 167.306 1001.18 170.867 1001.55 174.438C1001.67 175.57 1003.01 176.333 1003.91 175.413C1006.03 173.251 1008.17 171.079 1010.29 168.916C1009.57 168.824 1008.85 168.732 1008.12 168.64C1009.01 170.296 1009.57 172.045 1009.76 173.913C1009.88 175.1 1011.18 175.735 1012.12 174.889C1016.87 170.573 1023.45 169.422 1029.6 168.511C1037.29 167.37 1045.01 166.385 1052.73 165.511C1067.96 163.781 1083.24 162.52 1098.55 161.729C1107.24 161.278 1115.96 160.993 1124.66 160.845C1126.44 160.818 1126.44 158.057 1124.66 158.085C1093 158.609 1061.39 161.14 1030.04 165.677C1022.98 166.698 1015.63 167.977 1010.17 172.938C1010.95 173.26 1011.74 173.591 1012.52 173.913C1012.27 171.539 1011.63 169.349 1010.51 167.241C1010.08 166.459 1008.94 166.349 1008.33 166.965C1006.21 169.128 1004.07 171.3 1001.95 173.462C1002.73 173.784 1003.52 174.116 1004.3 174.438C1003.93 170.876 1003.55 167.315 1003.18 163.744C1003.04 162.41 1001.4 161.83 1000.6 163.045C998.635 166.072 995.957 168.392 992.717 169.974C993.389 170.25 994.07 170.527 994.742 170.803C994.079 168.704 993.417 166.606 992.754 164.508C992.469 163.606 991.144 163.045 990.444 163.901C986.745 168.447 983.045 172.993 979.346 177.539C980.073 177.631 980.791 177.723 981.518 177.815C980.147 174.714 978.775 171.612 977.395 168.511C977.054 167.738 975.757 167.591 975.223 168.235C972.775 171.226 970.318 174.217 967.87 177.208C968.597 177.3 969.315 177.392 970.042 177.484C969.223 176.131 968.404 174.778 967.585 173.425C966.932 172.339 965.478 172.68 965.063 173.757C964.428 175.422 963.278 176.729 961.751 177.649C962.376 177.815 963.011 177.981 963.637 178.146C963.039 176.803 962.441 175.45 961.843 174.106C961.511 173.352 960.186 173.168 959.671 173.83C957.628 176.444 955.594 179.048 953.551 181.662C954.333 181.984 955.125 182.315 955.907 182.637C956.275 175.367 956.634 168.097 957.002 160.818C956.146 161.048 955.29 161.278 954.425 161.517C955.695 163.625 955.042 166.137 953.579 167.977C951.885 170.112 949.207 171.005 946.594 171.364C943.566 171.778 940.456 171.576 937.41 171.539C934.17 171.493 930.94 171.456 927.701 171.428C914.421 171.3 901.142 171.272 887.854 171.346C880.372 171.392 872.899 171.465 865.418 171.566C865.813 171.797 866.209 172.027 866.614 172.247C866.043 171.18 865.326 170.297 864.387 169.523C863.789 169.036 863.034 168.981 862.436 169.523C858.69 172.938 854.936 176.352 851.19 179.766C851.844 179.766 852.488 179.766 853.141 179.766C850.905 177.189 849.46 174.014 849.055 170.619C848.945 169.726 847.914 168.704 846.976 169.422C844.896 171.024 842.816 172.625 840.736 174.226C841.196 174.226 841.666 174.226 842.126 174.226C840.764 173.315 840.221 171.861 840.386 170.278C840.506 169.054 838.813 168.502 838.031 169.303C835.859 171.502 833.696 173.701 831.524 175.892C832.297 176.343 833.061 176.784 833.834 177.235C834.147 175.165 833.853 173.297 832.794 171.474C832.325 170.665 831.285 170.619 830.623 171.198C828.552 173.02 826.491 174.843 824.42 176.656C825.193 176.858 825.957 177.06 826.73 177.263C825.865 174.493 825 171.723 824.135 168.953C823.849 168.042 822.524 167.508 821.825 168.346C819.082 171.612 816.349 174.879 813.607 178.146C814.389 178.468 815.181 178.8 815.963 179.122C815.705 174.336 815.457 169.56 815.199 164.775C815.125 163.422 813.368 162.879 812.622 164.076C810.506 167.517 808.38 170.95 806.263 174.392C807.119 174.622 807.975 174.852 808.84 175.091C809.116 172.054 808.748 169.073 807.745 166.192C807.275 164.839 805.591 164.941 805.085 166.192C803.291 170.628 800.668 174.649 797.383 178.119C798.156 178.321 798.92 178.524 799.693 178.726C798.156 171.244 797.843 163.606 798.708 156.023C798.91 154.256 796.15 154.275 795.947 156.023C794.972 164.563 792.008 172.735 787.379 179.968C786.459 181.468 788.852 182.858 789.809 181.367Z" fill="#FFEEED"/>
<path d="M1419.07 139.716C1438.46 139.716 1454.26 155.499 1454.26 174.907C1454.26 194.315 1438.47 210.098 1419.07 210.098C1399.66 210.098 1383.87 194.315 1383.87 174.907C1383.87 155.499 1399.66 139.716 1419.07 139.716Z" fill="#FF5B16" stroke="#FFEEED" stroke-miterlimit="10"/>
<path d="M501.564 139.716C520.963 139.716 536.754 155.499 536.754 174.907C536.754 194.315 520.972 210.098 501.564 210.098C482.155 210.098 466.373 194.315 466.373 174.907C466.373 155.499 482.155 139.716 501.564 139.716Z" fill="#FF5B16" stroke="#FFEEED" stroke-miterlimit="10"/>
<path d="M1244.54 381.552H1151.59V301.489H1244.54V381.552ZM1125.83 301.489H1032.88V381.552H1125.83V301.489ZM1007.11 301.489H914.165V381.552H1007.11V301.489ZM888.398 301.489H795.452V381.552H888.398V301.489ZM769.684 301.489H676.738V381.552H769.684V301.489Z" fill="url(#paint0_linear_580_228)"/>
<defs>
<linearGradient id="paint0_linear_580_228" x1="676.734" y1="341.52" x2="1244.53" y2="341.52" gradientUnits="userSpaceOnUse">
<stop offset="0.005618" stop-color="#FFD576"/>
<stop offset="0.3166" stop-color="#F7D9A8"/>
<stop offset="0.6195" stop-color="#F1DDD1"/>
<stop offset="0.8571" stop-color="#ECDFEB"/>
<stop offset="1" stop-color="#EBE0F4"/>
</linearGradient>
</defs>
</svg>
