<svg width="98" height="98" viewBox="0 0 98 98" fill="none" xmlns="http://www.w3.org/2000/svg">
<g clip-path="url(#clip0_623_644)">
<path d="M4.72298 49.6899C4.51398 49.6899 4.34298 49.8559 4.31598 50.0849L3.35498 58.8659L4.31598 67.4519C4.34298 67.6809 4.51398 67.8479 4.72298 67.8479C4.92898 67.8479 5.09598 67.6839 5.12898 67.4529L6.22298 58.8649L5.12898 50.0839C5.09598 49.8509 4.92898 49.6899 4.72298 49.6899Z" fill="white"/>
<path d="M1.108 53.054C0.905 53.054 0.743 53.21 0.716 53.437L0 58.866L0.716 64.203C0.742 64.429 0.904 64.585 1.108 64.585C1.306 64.585 1.467 64.429 1.499 64.205L2.346 58.866L1.499 53.432C1.467 53.21 1.306 53.054 1.108 53.054Z" fill="white"/>
<path d="M8.56389 47.968C8.30589 47.968 8.09989 48.17 8.07389 48.448L7.16089 58.866L8.07389 68.903C8.09989 69.182 8.30589 69.383 8.56389 69.383C8.81689 69.383 9.02289 69.182 9.05289 68.904L10.0889 58.865L9.05289 48.447C9.02289 48.17 8.81689 47.968 8.56389 47.968Z" fill="white"/>
<path d="M12.437 47.6C12.133 47.6 11.886 47.842 11.862 48.164L11 58.869L11.862 69.223C11.886 69.543 12.133 69.786 12.437 69.786C12.736 69.786 12.982 69.543 13.01 69.223L13.989 58.869L13.01 48.162C12.982 47.842 12.736 47.6 12.437 47.6Z" fill="white"/>
<path d="M16.9959 48.935C16.9719 48.57 16.6879 48.291 16.3399 48.291C15.9869 48.291 15.7049 48.569 15.6829 48.938L14.8689 58.868L15.6829 69.309C15.7049 69.676 15.9879 69.955 16.3399 69.955C16.6889 69.955 16.9719 69.676 16.9959 69.309L17.9189 58.868L16.9959 48.935Z" fill="white"/>
<path d="M20.276 41.985C19.88 41.985 19.556 42.307 19.536 42.718L18.772 58.873L19.536 69.313C19.557 69.719 19.881 70.042 20.276 70.042C20.668 70.042 20.992 69.72 21.016 69.31V69.314L21.88 58.874L21.016 42.718C20.991 42.307 20.667 41.985 20.276 41.985Z" fill="white"/>
<path d="M24.1811 38.264C23.7381 38.264 23.3771 38.622 23.3571 39.079C23.3571 39.081 22.6421 58.929 22.6421 58.929L23.3581 69.304C23.3781 69.759 23.7381 70.117 24.1811 70.117C24.6211 70.117 24.9851 69.759 25.0041 69.302V69.308L25.8131 58.929L25.0041 39.079C24.9851 38.622 24.6211 38.264 24.1811 38.264Z" fill="white"/>
<path d="M28.2409 36.47C27.7499 36.47 27.3509 36.866 27.3339 37.37C27.3339 37.371 26.6689 58.878 26.6689 58.878L27.3339 69.146C27.3519 69.646 27.7499 70.041 28.2409 70.041C28.7289 70.041 29.1279 69.646 29.1479 69.143V69.149L29.8989 58.879L29.1479 37.37C29.1269 36.866 28.7289 36.47 28.2409 36.47Z" fill="white"/>
<path d="M33.2601 36.647C33.2431 36.095 32.8081 35.662 32.2711 35.662C31.7301 35.662 31.2951 36.096 31.2801 36.647L30.6641 58.878L31.2811 69.082C31.2961 69.628 31.7301 70.06 32.2711 70.06C32.8081 70.06 33.2441 69.628 33.2601 69.079L33.9541 58.881L33.2601 36.647Z" fill="white"/>
<path d="M36.3319 36.1489C35.7419 36.1489 35.2709 36.6179 35.2569 37.2169L34.6909 58.8819L35.2589 68.9869C35.2719 69.5799 35.7419 70.0509 36.3319 70.0509C36.9179 70.0509 37.3889 69.5789 37.4049 68.9809V68.9889L38.0429 58.8799L37.4049 37.2139C37.3889 36.6159 36.9179 36.1489 36.3319 36.1489Z" fill="white"/>
<path d="M40.425 36.856C39.789 36.856 39.279 37.363 39.267 38.009L38.75 58.882L39.267 68.927C39.279 69.567 39.789 70.072 40.425 70.072C41.06 70.072 41.569 69.567 41.581 68.92V68.928L42.161 58.885L41.581 38.01C41.569 37.363 41.06 36.856 40.425 36.856Z" fill="white"/>
<path d="M45.2351 33.02C45.0391 32.887 44.8021 32.809 44.5491 32.809C44.3031 32.809 44.0741 32.884 43.8811 33.01C43.5421 33.231 43.3151 33.612 43.3091 34.046L43.3051 34.28L42.8391 58.878C42.8391 58.892 43.3091 68.862 43.3091 68.862C43.3091 68.878 43.3111 68.889 43.3121 68.904C43.3261 69.182 43.4311 69.438 43.6001 69.641C43.8291 69.914 44.1701 70.09 44.5491 70.09C44.8861 70.09 45.1931 69.951 45.4171 69.727C45.6421 69.504 45.7841 69.196 45.7901 68.854L45.8421 67.868L46.3131 58.884L45.7911 34.045C45.7831 33.618 45.5631 33.242 45.2351 33.02Z" fill="white"/>
<path d="M49.3291 30.665C49.1331 30.545 48.9011 30.475 48.6561 30.475C48.3401 30.475 48.0491 30.589 47.8201 30.777C47.5261 31.02 47.3361 31.386 47.3301 31.796L47.3271 31.932L46.7871 58.888L47.0631 63.87L47.3301 68.72C47.3411 69.437 47.9341 70.031 48.6561 70.031C49.3751 70.031 49.9681 69.437 49.9781 68.711V68.721V68.723L50.5681 58.889L49.9801 31.794C49.9731 31.315 49.7111 30.896 49.3291 30.665Z" fill="white"/>
<path d="M85.748 46.063C84.102 46.063 82.528 46.397 81.098 46.996C80.139 36.159 71.051 27.657 59.965 27.657C57.251 27.657 54.608 28.191 52.272 29.094C51.365 29.446 51.125 29.806 51.116 30.508C51.116 30.509 51.116 68.676 51.116 68.676C51.125 69.411 51.695 69.984 52.414 70.055C52.445 70.059 85.75 70.055 85.75 70.055C92.392 70.055 97.775 64.731 97.775 58.088C97.774 51.447 92.391 46.063 85.748 46.063Z" fill="white"/>
</g>
<defs>
<clipPath id="clip0_623_644">
<rect width="97.774" height="97.774" fill="white"/>
</clipPath>
</defs>
</svg>
