<svg width="351" height="351" viewBox="0 0 351 351" fill="none" xmlns="http://www.w3.org/2000/svg">
<path d="M175.69 350.04C272.34 350.04 350.69 271.69 350.69 175.04C350.69 78.3902 272.34 0.0400391 175.69 0.0400391C79.0401 0.0400391 0.689941 78.3902 0.689941 175.04C0.689941 271.69 79.0401 350.04 175.69 350.04Z" fill="url(#paint0_linear_2108_22)"/>
<path d="M139.25 32C150.91 29.04 163.11 27.46 175.69 27.46C188.27 27.46 200.48 29.04 212.13 32C210.11 40.77 196.04 101.48 193.96 101.48H157.41C155.34 101.49 141.27 40.78 139.25 32Z" fill="#EB7960"/>
<path d="M279.15 280.27C296.5 263.21 309.65 241.89 316.91 218C311.07 216.21 248.12 196.96 247.05 198.81L228.77 230.46C227.77 232.21 270.53 272.23 279.15 280.27Z" fill="#EB7960"/>
<path d="M71.9801 280.02C54.7201 262.96 41.6502 241.69 34.4302 217.86C42.5902 215.36 102.76 197.01 103.8 198.82L122.08 230.47C123.08 232.19 81.2001 271.41 71.9801 280.02Z" fill="#EB7960"/>
<path d="M175.69 220.24C200.653 220.24 220.89 200.003 220.89 175.04C220.89 150.077 200.653 129.84 175.69 129.84C150.727 129.84 130.49 150.077 130.49 175.04C130.49 200.003 150.727 220.24 175.69 220.24Z" fill="#FFD576"/>
<defs>
<linearGradient id="paint0_linear_2108_22" x1="0.693141" y1="175.043" x2="350.693" y2="175.043" gradientUnits="userSpaceOnUse">
<stop stop-color="#FF97DF"/>
<stop offset="0.3308" stop-color="#FFAAB1"/>
<stop offset="1" stop-color="#FFBD85"/>
</linearGradient>
</defs>
</svg>
