<svg width="351" height="351" viewBox="0 0 351 351" fill="none" xmlns="http://www.w3.org/2000/svg">
<path d="M175.69 0.0395661C79.0401 0.0395745 0.689918 78.3897 0.689926 175.04C0.689935 271.689 79.0401 350.04 175.69 350.04C272.34 350.04 350.69 271.689 350.69 175.04C350.69 78.3897 272.34 0.0395576 175.69 0.0395661Z" fill="url(#paint0_linear_2257_75)"/>
<path d="M212.13 318.08C200.47 321.04 188.27 322.62 175.69 322.62C163.11 322.62 150.9 321.04 139.25 318.08C141.27 309.31 155.34 248.6 157.42 248.6L193.97 248.6C196.04 248.59 210.11 309.3 212.13 318.08Z" fill="#FFD576"/>
<path d="M72.2297 69.8099C54.8797 86.8699 41.7297 108.19 34.4697 132.08C40.3097 133.87 103.26 153.12 104.33 151.27L122.61 119.62C123.61 117.87 80.8497 77.8499 72.2297 69.8099Z" fill="#FFD576"/>
<path d="M279.4 70.0599C296.66 87.1199 309.73 108.39 316.95 132.22C308.79 134.72 248.62 153.07 247.58 151.26L229.3 119.61C228.3 117.89 270.18 78.6699 279.4 70.0599Z" fill="#FFD576"/>
<path d="M175.689 129.84C150.726 129.84 130.489 150.076 130.489 175.04C130.489 200.003 150.726 220.24 175.689 220.24C200.653 220.24 220.889 200.003 220.889 175.04C220.889 150.076 200.653 129.84 175.689 129.84Z" fill="#FFF5DC"/>
<defs>
<linearGradient id="paint0_linear_2257_75" x1="350.687" y1="175.036" x2="0.686726" y2="175.036" gradientUnits="userSpaceOnUse">
<stop stop-color="#FF7058"/>
<stop offset="1" stop-color="#FFD576"/>
</linearGradient>
</defs>
</svg>
