<svg width="351" height="351" viewBox="0 0 351 351" fill="none" xmlns="http://www.w3.org/2000/svg">
<path d="M175.04 350.04C271.69 350.04 350.04 271.69 350.04 175.04C350.04 78.3902 271.69 0.0400391 175.04 0.0400391C78.3902 0.0400391 0.0400391 78.3902 0.0400391 175.04C0.0400391 271.69 78.3902 350.04 175.04 350.04Z" fill="url(#paint0_linear_2257_69)"/>
<path d="M255.13 55.4898C248.56 51.0998 241.54 47.1798 234.09 43.8298C226.64 40.4798 219.06 37.8198 211.41 35.8198C211.1 36.2698 210.83 36.7598 210.64 37.3098C210.64 37.3098 188.13 109.97 190.96 111.24L212.23 120.81C215.06 122.08 254.51 57.0498 254.51 57.0498C254.8 56.5398 255 56.0198 255.13 55.4898Z" fill="#FFF5DC"/>
<path d="M272.67 280.79C260.78 291.76 247.19 300.56 232.58 306.93C232.52 306.84 232.46 306.76 232.4 306.66C232.4 306.66 195.8 239.98 198.32 238.16L217.24 224.52C219.76 222.7 271.43 278.53 271.43 278.53C272.03 279.21 272.44 279.99 272.67 280.79Z" fill="#FFF5DC"/>
<path d="M38.18 219.46C33.25 204.29 30.83 188.29 31.15 172.12C31.91 171.76 32.76 171.55 33.66 171.55C33.66 171.55 109.71 173.2 110.02 176.29L112.37 199.5C112.68 202.59 38.5 219.43 38.5 219.43C38.39 219.43 38.28 219.44 38.18 219.46Z" fill="#FFF5DC"/>
<path d="M175.04 220.24C200.003 220.24 220.24 200.003 220.24 175.04C220.24 150.077 200.003 129.84 175.04 129.84C150.077 129.84 129.84 150.077 129.84 175.04C129.84 200.003 150.077 220.24 175.04 220.24Z" fill="#FFD576"/>
<defs>
<linearGradient id="paint0_linear_2257_69" x1="15.4641" y1="103.227" x2="334.629" y2="246.832" gradientUnits="userSpaceOnUse">
<stop stop-color="#FF7058"/>
<stop offset="1" stop-color="#FF97DF"/>
</linearGradient>
</defs>
</svg>
